<?xml version="1.0" standalone="no"?>
<!DOCTYPE svg PUBLIC "-//W3C//DTD SVG 20010904//EN"
 "http://www.w3.org/TR/2001/REC-SVG-20010904/DTD/svg10.dtd">
<svg version="1.0" xmlns="http://www.w3.org/2000/svg"
 width="1282.000000pt" height="1282.000000pt" viewBox="0 0 1282.000000 1282.000000"
 preserveAspectRatio="xMidYMid meet">

<g transform="translate(0.000000,1282.000000) scale(0.100000,-0.100000)"
fill="#000000" stroke="none">
<path d="M9710 10380 c-13 -13 -20 -33 -20 -60 0 -22 -7 -57 -15 -77 -8 -20
-15 -66 -15 -103 0 -38 -4 -102 -9 -142 -6 -40 -12 -91 -14 -113 -3 -22 -10
-62 -17 -90 -8 -29 -14 -129 -15 -240 -1 -104 -3 -198 -4 -207 -2 -30 -42 -21
-77 17 -38 42 -76 46 -99 11 -23 -35 -6 -96 61 -214 62 -111 83 -202 64 -271
-5 -20 -10 -60 -10 -88 0 -42 4 -55 20 -65 13 -9 20 -24 20 -46 0 -20 6 -35
15 -38 27 -11 16 -24 -15 -18 -20 4 -39 1 -56 -11 -25 -16 -26 -20 -21 -81 5
-70 -3 -73 -32 -16 -17 34 -57 76 -103 111 -24 18 -70 -1 -89 -36 -11 -21 -11
-29 3 -54 10 -16 13 -29 8 -29 -16 0 -11 -19 15 -57 13 -20 21 -41 18 -47 -4
-6 0 -5 9 1 13 11 18 7 33 -26 10 -23 14 -48 10 -60 -5 -16 -3 -19 8 -15 8 3
17 -2 20 -10 4 -9 3 -16 -2 -16 -5 0 -8 -11 -8 -25 0 -13 5 -23 11 -22 6 1 10
-4 9 -10 -2 -7 8 -15 22 -19 31 -8 55 -34 31 -34 -9 0 -16 -4 -16 -8 0 -14 24
-32 42 -32 11 0 18 -6 16 -12 -3 -19 12 -72 24 -79 6 -4 6 -9 1 -12 -15 -10
-39 17 -106 119 -93 144 -119 161 -174 111 -24 -22 -23 -46 4 -100 13 -27 13
-30 -11 -52 -36 -33 -33 -63 15 -128 l40 -57 -34 0 c-117 0 -102 -140 25 -238
30 -23 79 -67 111 -99 31 -32 71 -68 87 -81 30 -24 41 -62 17 -62 -7 0 -26 13
-41 29 -61 64 -124 61 -152 -5 -15 -35 -14 -39 5 -63 34 -42 44 -68 37 -95 -8
-32 -24 -33 -35 -3 -5 12 -21 37 -35 56 -14 19 -26 39 -26 44 0 6 -11 24 -24
41 -13 17 -33 50 -45 74 -12 23 -26 42 -31 42 -5 0 -11 8 -14 18 -7 21 -50 42
-67 32 -6 -5 -9 -17 -6 -29 3 -12 1 -19 -4 -15 -5 3 -9 1 -9 -4 0 -17 23 -77
35 -92 6 -8 17 -29 24 -47 11 -28 10 -35 -8 -60 l-21 -29 19 -55 c10 -31 31
-75 45 -97 14 -23 26 -46 26 -50 0 -5 14 -27 31 -48 23 -29 29 -45 24 -64 -18
-68 -8 -92 65 -158 39 -35 70 -68 70 -73 0 -5 -14 -9 -30 -9 -31 0 -80 -37
-80 -60 0 -6 -12 -15 -26 -20 -23 -9 -32 -6 -71 27 -75 63 -107 82 -140 82
-38 1 -73 -28 -73 -60 0 -25 116 -148 169 -180 l34 -20 -31 -19 c-18 -11 -32
-25 -32 -31 0 -15 -98 81 -116 113 -8 15 -13 31 -13 35 3 12 -12 46 -28 63
-37 40 -54 66 -59 87 -4 13 -16 26 -30 29 -28 7 -29 12 -9 38 18 24 19 58 4
73 -9 9 -8 20 0 45 11 29 10 35 -10 51 -33 26 -31 28 -97 -61 -17 -23 -18 -23
-18 -3 0 12 6 21 13 21 8 0 16 14 20 30 3 17 9 30 14 30 5 0 6 7 3 15 -3 8 1
24 10 37 9 12 16 18 16 13 0 -6 7 3 15 19 9 16 14 34 12 40 -3 6 0 19 5 28 6
13 3 23 -12 38 -11 11 -24 20 -29 20 -11 0 -51 -38 -76 -73 l-20 -27 0 37 c0
27 -5 40 -20 48 -25 13 -31 50 -10 59 14 5 15 18 9 88 l-6 83 42 78 c49 94 52
140 8 145 -19 2 -30 -3 -38 -17 -12 -23 -40 -28 -40 -8 -1 6 -2 66 -4 132 -2
66 -8 147 -14 180 -6 33 -13 92 -15 130 -2 39 -9 81 -16 92 -6 12 -10 31 -8
43 3 31 -26 48 -48 30 -14 -12 -16 -25 -10 -75 9 -88 8 -130 -5 -227 -10 -75
-10 -96 5 -154 17 -67 17 -68 -5 -84 -19 -14 -23 -27 -24 -73 0 -50 -3 -56
-20 -54 -13 1 -25 -8 -33 -25 -14 -28 -3 -70 71 -260 28 -75 29 -73 -38 -68
-54 4 -59 -35 -16 -127 21 -43 32 -84 34 -124 l4 -61 -27 7 c-70 17 -81 17
-87 1 -3 -9 -14 -16 -25 -16 -23 0 -39 -29 -39 -73 0 -23 12 -51 41 -92 22
-31 38 -59 36 -61 -9 -9 -118 92 -124 114 -11 47 -76 69 -87 30 -5 -23 23 -74
62 -112 22 -22 130 -103 141 -108 5 -2 13 -16 16 -31 l7 -28 -38 18 c-22 9
-59 32 -83 50 -24 18 -54 33 -66 33 -28 0 -51 -27 -47 -53 5 -30 68 -123 99
-146 15 -11 33 -24 38 -29 6 -4 21 -15 35 -25 28 -19 20 -23 -12 -6 -23 13
-110 28 -198 35 -44 4 -60 1 -79 -15 -47 -36 -24 -134 49 -214 l50 -55 -25
-16 c-28 -19 -51 -21 -61 -5 -4 6 -19 9 -36 5 -34 -7 -68 11 -68 36 0 9 -4 20
-10 23 -18 11 -11 22 25 44 37 22 45 50 20 71 -12 10 -20 9 -40 -4 -14 -9 -25
-14 -25 -11 0 15 26 53 56 83 19 18 34 39 34 46 0 8 7 16 15 20 8 3 15 12 15
21 0 15 -30 22 -30 8 0 -5 -21 -30 -46 -58 -25 -27 -54 -68 -65 -90 -21 -44
-56 -72 -70 -58 -6 6 9 26 36 51 46 42 50 49 39 76 -10 25 -48 19 -89 -14 -45
-36 -47 -36 -63 -10 -7 11 -22 20 -34 20 -20 0 -19 3 15 38 29 30 37 46 37 74
0 20 4 40 10 43 5 3 22 31 36 62 22 45 25 60 15 74 -9 15 -7 27 9 57 22 42 18
72 -9 72 -15 0 -32 -21 -98 -129 -18 -28 -22 -32 -23 -16 0 12 5 26 11 32 17
17 3 60 -21 66 -11 3 -30 -3 -44 -14 -55 -43 -32 -14 49 63 76 72 86 85 83
112 -2 19 -11 34 -25 41 -21 11 -21 11 -2 35 23 30 23 35 4 54 -12 12 -13 20
-4 40 9 20 9 29 -1 41 -17 20 -47 19 -59 -2 -9 -15 -10 -12 -7 15 1 18 13 47
25 63 28 37 37 85 20 105 -18 21 -37 17 -70 -15 -16 -16 -29 -25 -29 -19 0 5
-11 24 -25 40 -23 28 -24 32 -11 47 12 13 14 32 10 82 -5 60 -3 68 30 131 39
73 44 99 22 117 -16 13 -56 -1 -56 -19 0 -6 -6 -10 -14 -10 -10 0 -13 20 -13
93 0 50 -5 130 -11 177 -7 47 -14 103 -16 125 -12 127 -33 168 -66 128 -15
-19 -16 -30 -8 -75 7 -36 6 -85 -1 -153 -10 -83 -9 -109 3 -155 15 -52 14 -55
-5 -73 -16 -15 -20 -29 -17 -63 2 -35 0 -43 -11 -39 -21 8 -41 -14 -41 -46 0
-16 16 -70 36 -121 20 -51 38 -104 41 -117 6 -22 4 -24 -25 -18 -21 4 -36 2
-47 -9 -20 -21 -19 -28 12 -93 25 -54 44 -161 27 -161 -4 0 -23 6 -42 12 -28
11 -36 10 -46 -2 -6 -8 -20 -20 -31 -26 -35 -19 -31 -73 9 -132 19 -29 31 -52
27 -52 -14 0 -99 86 -105 107 -7 23 -39 39 -56 28 -16 -10 -11 -45 11 -76 11
-17 51 -52 87 -80 37 -28 70 -59 74 -70 4 -10 5 -19 2 -19 -15 0 -73 32 -98
54 -16 14 -37 26 -47 26 -58 0 -64 -38 -17 -109 48 -73 56 -75 145 -51 41 11
88 27 105 36 16 8 36 13 43 10 12 -4 39 -84 126 -375 23 -78 48 -149 56 -156
7 -8 13 -24 13 -36 0 -12 10 -48 21 -81 18 -48 25 -57 41 -53 16 6 17 4 7 -18
-13 -28 6 -77 113 -294 67 -137 88 -166 88 -124 0 11 9 23 21 26 25 8 27 6 35
-33 6 -31 5 -32 -25 -32 -17 0 -31 -2 -31 -5 0 -3 33 -59 73 -125 101 -170
266 -387 393 -519 98 -103 109 -111 136 -106 26 6 28 5 29 -27 0 -26 8 -40 41
-66 22 -17 44 -32 49 -32 5 0 9 38 9 83 l0 84 37 26 c20 14 62 50 92 79 31 29
70 66 87 81 l31 28 47 -22 c46 -23 54 -33 36 -44 -5 -3 -10 -21 -10 -40 0 -26
8 -39 36 -62 20 -15 81 -72 136 -126 55 -53 112 -104 126 -111 15 -8 45 -30
67 -49 l40 -35 0 -148 c1 -82 -2 -159 -7 -171 -4 -12 -3 -25 2 -28 13 -8 13
-45 0 -45 -10 0 -14 14 -11 37 3 20 -23 15 -37 -7 -9 -15 -9 -20 0 -20 6 0 9
-3 6 -6 -5 -5 6 -40 43 -131 15 -36 3 -60 -25 -50 -19 7 -61 73 -70 109 -3 16
-13 28 -20 28 -8 0 -16 9 -19 21 -4 13 -10 18 -18 13 -7 -4 -10 -3 -6 3 7 10
-41 49 -55 46 -3 -1 -14 14 -23 34 -13 26 -19 32 -26 22 -5 -8 -4 -18 1 -23
17 -17 11 -32 -15 -44 -32 -15 -35 -15 -35 0 0 6 -7 19 -16 29 -12 14 -13 24
-6 53 7 24 7 38 0 42 -6 4 -13 3 -17 -2 -3 -5 -16 -10 -28 -12 -17 -2 -24 3
-29 22 -3 14 -10 26 -15 26 -13 0 -11 -13 7 -39 15 -21 15 -24 0 -39 -16 -16
-19 -15 -36 5 -10 13 -22 23 -26 23 -4 0 -16 7 -26 17 -10 9 -18 12 -18 6 0
-12 35 -45 41 -39 2 2 5 -9 6 -25 2 -26 0 -29 -18 -24 -15 5 -22 2 -26 -13 -4
-18 -7 -19 -33 -5 -16 8 -28 19 -26 26 1 7 1 9 -1 5 -8 -14 -30 -8 -49 13 -17
19 -65 49 -79 49 -3 0 0 -9 7 -20 7 -11 17 -20 22 -20 16 0 95 -64 96 -77 0
-23 -18 -14 -53 27 -38 44 -56 53 -31 15 8 -13 13 -28 10 -34 -3 -5 1 -12 10
-15 10 -4 13 -2 8 6 -4 7 -3 8 4 4 12 -7 5 -37 -12 -48 -6 -4 -20 -1 -32 7
-12 8 -25 11 -28 8 -4 -4 -15 -7 -26 -8 -18 -2 -27 22 -21 58 12 74 17 122 26
247 l7 106 -45 37 c-25 20 -48 37 -51 37 -4 0 -4 -141 -1 -312 4 -190 3 -318
-3 -327 -12 -17 -107 -39 -202 -46 -154 -12 -439 -87 -538 -141 -74 -40 -264
-116 -348 -139 -80 -21 -401 -31 -564 -16 -175 15 -445 72 -522 110 -31 15
-45 16 -93 8 -36 -7 -70 -7 -93 -1 -21 5 -60 8 -88 6 l-52 -3 -4 -117 c-5
-109 -8 -126 -53 -247 -69 -187 -85 -249 -92 -346 -4 -66 -2 -97 11 -137 10
-29 21 -54 24 -56 4 -2 8 37 8 87 1 71 8 112 29 177 53 164 82 294 95 427 9
101 14 115 34 107 45 -17 48 -121 10 -317 -24 -123 -25 -145 -15 -192 17 -74
36 -88 37 -27 1 54 93 322 110 322 17 0 39 -144 38 -245 -2 -109 -35 -209
-114 -339 -37 -62 -56 -108 -72 -173 -38 -161 -51 -195 -93 -252 -23 -31 -58
-67 -79 -81 -21 -14 -53 -47 -72 -75 -33 -48 -34 -50 -13 -53 12 -2 42 2 66 9
25 6 59 12 76 13 24 1 33 6 35 21 2 12 13 34 26 50 28 34 52 29 67 -15 12 -34
25 -36 95 -15 59 18 112 19 140 2 37 -21 70 -51 89 -80 23 -36 24 -126 1 -162
-9 -14 -15 -29 -12 -34 3 -4 34 -11 68 -15 86 -9 95 -20 63 -78 -36 -64 -60
-239 -41 -294 15 -44 54 -66 79 -46 24 20 78 140 80 177 1 19 6 35 11 35 5 0
6 -20 4 -43 -7 -58 -63 -171 -93 -187 -26 -14 -111 -9 -251 15 l-81 14 -104
-97 c-57 -53 -161 -154 -232 -225 -86 -85 -136 -127 -151 -127 -12 0 -85 -18
-161 -41 -77 -22 -153 -44 -170 -48 -34 -8 200 -42 435 -63 178 -16 668 -16
850 0 838 74 1604 313 2303 718 394 229 767 515 1088 834 267 266 388 409 722
858 31 42 60 88 64 102 3 14 34 72 68 130 88 149 99 171 80 164 -20 -8 -21 35
-1 61 11 15 17 17 28 7 21 -17 28 -5 17 31 -13 44 -25 53 -33 22 -5 -21 -12
-26 -27 -22 -19 5 -69 -33 -69 -53 0 -4 -6 -11 -12 -13 -7 -3 -3 -6 10 -6 12
-1 22 -6 22 -12 0 -5 -4 -7 -10 -4 -5 3 -10 -2 -10 -12 0 -15 -4 -13 -25 9
-37 40 -47 75 -44 153 2 39 0 75 -3 81 -4 6 -7 45 -7 86 l0 76 55 -25 55 -25
72 37 c40 21 79 43 87 50 25 20 183 94 210 98 14 3 37 -2 52 -9 14 -8 51 -16
80 -20 51 -6 57 -4 89 24 25 22 53 34 99 43 86 16 137 43 162 85 12 20 28 34
40 34 10 0 27 4 37 9 9 5 57 14 106 20 309 36 287 31 314 77 26 44 27 78 2
103 -22 22 -80 36 -111 28 -32 -8 -24 19 18 61 44 44 146 86 235 97 83 11 107
33 107 99 0 52 -1 53 -39 70 -58 27 -190 14 -268 -25 -32 -16 -65 -29 -74 -29
-8 0 -19 -4 -25 -9 -17 -15 -138 -39 -179 -34 -34 4 -57 -4 -150 -52 -60 -31
-129 -68 -152 -82 -46 -26 -63 -24 -63 9 0 12 -7 29 -16 39 -15 16 -14 20 2
48 12 20 24 29 34 26 8 -3 28 4 43 14 16 10 37 17 47 14 10 -3 26 4 36 15 28
29 132 46 264 44 85 -2 99 2 128 39 10 13 10 22 1 42 -14 32 -41 39 -116 31
-40 -4 -69 -2 -93 8 l-35 15 50 12 c106 26 166 33 180 21 10 -8 18 -8 33 1 18
12 47 69 34 69 -4 0 -8 19 -9 41 -2 37 -40 107 -64 117 -3 1 -14 9 -24 16 -15
11 -15 16 -4 33 10 17 10 26 -1 52 -15 37 -43 40 -117 14 -26 -9 -70 -17 -98
-19 -27 -1 -59 -4 -69 -6 -24 -4 -25 16 -7 80 7 24 9 52 6 63 -5 14 2 28 24
48 64 60 25 118 -72 108 -28 -3 -65 -9 -81 -13 -27 -7 -28 -6 -21 24 7 36 -15
86 -46 103 -15 8 -33 8 -64 0 -57 -14 -55 -15 -55 13 0 14 -4 28 -10 31 -20
12 -9 23 28 29 49 7 92 40 92 70 0 31 -34 72 -65 80 -14 4 -25 11 -25 16 0 8
61 30 86 30 6 0 23 9 38 21 27 21 35 66 15 86 -7 7 0 22 25 49 20 22 36 48 37
59 2 31 -2 49 -13 56 -15 9 -68 -13 -68 -28 0 -7 -4 -13 -8 -13 -5 0 -23 -12
-41 -27 -30 -25 -39 -27 -120 -26 -49 0 -104 6 -122 12 -26 8 -55 7 -118 -3
-96 -16 -125 -12 -111 13 12 23 2 83 -16 97 -15 12 -19 34 -6 34 4 0 47 -7 95
-15 49 -9 97 -13 108 -10 33 11 52 51 45 93 -7 48 4 56 110 76 32 6 111 64
136 99 12 18 28 38 35 45 35 36 22 107 -25 138 -23 15 -33 16 -85 5 l-58 -12
-30 32 c-26 28 -34 31 -70 26 -23 -3 -51 -15 -63 -26 -25 -23 -86 -40 -86 -23
0 6 35 37 77 69 113 86 146 117 168 160 11 21 34 59 52 85 18 26 35 65 39 86
5 35 3 41 -26 65 -47 40 -100 24 -177 -50 -44 -42 -157 -103 -191 -103 -17 0
-17 4 -8 46 10 43 17 50 104 110 50 36 92 69 92 74 0 5 14 17 32 26 38 20 65
49 79 87 6 15 15 27 19 27 16 0 50 72 48 101 -3 43 -19 52 -66 40 -27 -8 -42
-19 -51 -38 -43 -91 -74 -133 -97 -133 -7 0 -29 -21 -49 -47 -20 -27 -52 -56
-71 -66 l-34 -17 0 24 c0 13 7 29 15 36 48 40 114 166 121 231 5 43 2 55 -21
85 -17 22 -34 34 -50 34 -14 0 -29 9 -35 20 -21 39 -56 43 -113 15 -60 -31
-104 -30 -98 0 2 11 5 56 6 100 1 44 9 98 18 120 41 109 59 150 73 169 38 55
-7 146 -64 131 -15 -4 -45 -8 -67 -9 -35 -1 -40 2 -43 23 -4 23 3 42 34 103 8
14 14 36 14 47 0 12 9 39 20 61 11 22 20 46 20 55 0 9 6 26 14 38 21 33 50
155 50 215 0 41 -4 57 -22 75 -22 21 -24 21 -52 5 -38 -22 -46 -9 -30 47 17
62 -8 148 -50 170 -17 9 -31 21 -32 28 0 6 -2 17 -2 23 -3 22 -154 259 -157
244 -7 -46 -6 -285 2 -313 5 -21 7 -58 4 -82 -10 -61 -41 -66 -88 -13 -56 63
-113 46 -110 -33 2 -41 33 -111 87 -194 64 -99 74 -151 61 -311 l-8 -92 27
-17 c22 -15 26 -23 21 -47 -6 -24 -3 -30 14 -35 34 -9 24 -24 -12 -18 -65 12
-97 -48 -74 -137 10 -38 -4 -35 -28 5 -45 76 -111 137 -149 137 -21 0 -66 -50
-66 -73 0 -11 7 -29 17 -39 9 -11 11 -18 5 -18 -7 0 -12 -7 -12 -16 0 -19 51
-84 66 -84 17 0 47 -75 39 -99 -5 -16 -3 -19 8 -15 8 3 17 -2 20 -10 4 -9 3
-16 -2 -16 -5 0 -8 -11 -8 -25 0 -15 5 -25 13 -25 8 0 14 -4 14 -10 0 -5 11
-12 25 -16 31 -8 55 -34 31 -34 -29 0 -17 -30 14 -36 25 -6 29 -10 26 -35 -2
-16 1 -29 5 -29 5 0 9 -7 9 -15 0 -8 5 -15 10 -15 6 0 10 -4 10 -10 0 -18 -21
-10 -46 17 -14 15 -46 59 -72 97 -92 139 -121 158 -176 115 -23 -18 -26 -26
-20 -52 3 -17 14 -45 24 -63 18 -31 18 -32 -5 -42 -46 -21 -35 -100 21 -153
22 -21 35 -57 16 -45 -5 3 -26 1 -46 -5 -43 -12 -61 -45 -50 -93 8 -38 46 -96
75 -116 12 -8 29 -23 38 -32 8 -10 20 -18 25 -18 5 0 44 -33 86 -72 42 -40 89
-81 103 -91 28 -19 37 -57 13 -57 -8 0 -33 16 -56 35 -51 42 -90 46 -125 10
-33 -32 -31 -68 4 -118 22 -31 28 -49 24 -69 -7 -38 -30 -35 -46 5 -8 17 -21
38 -30 46 -10 7 -17 19 -17 25 0 7 -15 32 -32 56 -18 24 -42 62 -54 85 -11 22
-26 39 -32 37 -7 -1 -12 7 -12 18 0 13 -7 20 -19 20 -11 0 -21 5 -23 11 -6 18
-36 -2 -41 -28 -6 -30 10 -92 28 -113 7 -8 16 -25 19 -37 6 -19 2 -22 -33 -28
-36 -6 -43 -4 -65 22 -20 24 -32 28 -70 27 -34 -1 -52 -7 -67 -22 -12 -13 -32
-22 -50 -22 -27 0 -29 2 -19 20 6 11 15 20 21 20 5 0 32 17 59 38 27 20 65 48
84 62 20 14 54 54 76 90 22 36 49 76 60 90 11 14 23 42 26 62 6 32 2 40 -22
63 -23 22 -34 25 -62 20 -40 -7 -73 -24 -85 -43 -24 -37 -205 -130 -227 -117
-4 3 -2 24 4 46 13 42 46 79 72 79 8 0 14 5 14 10 0 6 6 10 14 10 8 0 16 7 20
15 3 8 12 15 19 15 8 0 21 7 28 17 8 9 37 33 66 54 68 51 146 165 139 205 -2
16 -5 33 -5 37 -1 9 -54 4 -84 -8 -9 -4 -20 -19 -24 -34 -7 -30 -40 -80 -66
-99 -9 -7 -15 -17 -12 -22 3 -4 -4 -6 -14 -3 -14 4 -28 -7 -51 -39 -30 -41
-87 -81 -102 -72 -10 7 2 35 31 71 80 99 95 129 105 203 8 58 -20 108 -65 117
-20 4 -34 14 -40 29 -11 31 -54 32 -110 3 -22 -11 -50 -19 -62 -17 -21 3 -22
7 -19 93 3 83 9 116 33 170 4 11 19 45 33 76 13 31 29 60 35 63 14 9 14 56 1
90 -11 30 -48 42 -87 29 -16 -5 -40 -7 -55 -5 -36 4 -37 36 -3 104 14 27 25
55 25 62 0 6 9 29 20 51 11 22 20 45 20 52 0 7 9 32 19 55 58 128 72 247 31
280 -20 16 -24 16 -50 3 -34 -18 -44 -7 -29 32 11 30 6 133 -9 159 -5 8 -20
21 -33 28 -32 16 -29 69 12 203 20 63 21 116 3 143 -5 8 -12 51 -16 95 -4 44
-10 112 -14 151 -4 52 -2 87 10 126 8 30 16 78 17 108 2 47 -1 56 -25 77 -33
28 -40 29 -66 3z m-260 -2111 c0 -6 -4 -7 -10 -4 -5 3 -10 11 -10 16 0 6 5 7
10 4 6 -3 10 -11 10 -16z m1235 -169 c3 -5 2 -10 -4 -10 -5 0 -13 5 -16 10 -3
6 -2 10 4 10 5 0 13 -4 16 -10z m-805 -235 c-7 -8 -20 -15 -29 -15 -12 1 -11
5 8 21 26 22 41 18 21 -6z m1260 -175 c-11 -20 -40 -28 -40 -10 0 9 28 29 43
30 4 0 3 -9 -3 -20z m-1217 -559 c-3 -10 -17 -31 -33 -46 l-28 -27 -7 23 c-6
18 -1 28 19 46 33 28 56 30 49 4z m-2258 -38 c-17 -25 -25 -31 -23 -18 2 11
10 25 18 32 8 7 11 13 5 13 -5 0 -3 4 5 10 24 15 23 3 -5 -37z m1791 -54 c36
-22 41 -29 22 -29 -15 0 -78 49 -64 50 5 0 24 -9 42 -21z m974 -105 c0 -6 16
-31 36 -57 34 -44 35 -48 27 -99 -7 -44 -12 -54 -31 -56 -12 -2 -22 -10 -22
-18 0 -8 -4 -14 -9 -14 -4 0 -24 -13 -42 -30 -24 -21 -40 -28 -54 -23 -11 4
-48 6 -82 4 -41 -1 -72 3 -93 14 -24 13 -41 14 -82 6 -59 -10 -78 -6 -78 18 0
22 -19 41 -42 41 -11 0 -18 7 -18 20 0 11 -7 23 -15 26 -15 6 -21 34 -7 34 4
0 41 -7 82 -16 92 -20 119 -19 144 5 19 20 25 63 13 91 -9 19 30 38 93 47 27
4 63 19 90 39 l45 32 22 -26 c13 -15 23 -32 23 -38z m771 -5 c-11 -28 -47 -69
-62 -69 -6 0 -9 14 -7 31 2 24 11 36 37 50 41 22 45 20 32 -12z m-466 -114
c19 -15 24 -24 15 -24 -8 0 -28 11 -45 24 -19 16 -24 25 -15 25 8 0 29 -11 45
-25z m-1834 -132 c17 -43 -11 -70 -55 -53 -19 7 -30 4 -49 -11 -14 -10 -33
-19 -43 -19 -10 0 -28 -10 -41 -22 -13 -12 -26 -19 -29 -15 -4 3 26 37 66 74
40 37 80 75 89 83 14 14 18 14 34 0 11 -8 23 -25 28 -37z m912 -7 l29 -23 -24
-7 c-16 -4 -28 0 -40 15 -36 43 -11 53 35 15z m799 -64 c42 -39 41 -52 -3 -52
-29 0 -79 -37 -79 -59 0 -16 -39 -33 -59 -26 -16 5 -18 10 -8 35 8 21 8 35 -1
54 -10 22 -8 27 24 51 19 15 34 35 34 47 0 20 1 20 28 2 15 -9 44 -33 64 -52z
m-657 48 c3 -5 -1 -10 -10 -10 -9 0 -13 5 -10 10 3 6 8 10 10 10 2 0 7 -4 10
-10z m30 0 c3 -5 1 -10 -4 -10 -6 0 -11 5 -11 10 0 6 2 10 4 10 3 0 8 -4 11
-10z m-1187 -175 c-6 -13 -15 -22 -19 -19 -13 7 -11 28 3 42 18 18 28 4 16
-23z m2320 -43 c1 -5 -6 -12 -18 -15 -21 -5 -50 24 -50 51 0 10 8 9 32 -7 18
-11 34 -24 36 -29z m-2193 -33 c-4 -5 -13 -9 -22 -9 -13 0 -13 3 -3 15 13 15
35 11 25 -6z m506 -78 c55 -43 56 -44 55 -95 -1 -43 -4 -51 -21 -54 -15 -2
-32 16 -71 80 -46 75 -74 130 -74 144 0 8 44 -22 111 -75z m-963 27 c14 -14
16 -28 2 -28 -5 0 -14 9 -20 20 -12 22 -1 27 18 8z m398 -55 c-2 -3 -9 -2 -15
2 -8 4 -7 13 1 28 l13 22 3 -23 c2 -13 1 -26 -2 -29z m1051 21 c-3 -3 -12 -4
-19 -1 -8 3 -5 6 6 6 11 1 17 -2 13 -5z m501 -6 c-2 -6 -10 -14 -16 -16 -7 -2
-10 2 -6 12 7 18 28 22 22 4z m-1693 -8 c-3 -5 -12 -10 -18 -10 -7 0 -6 4 3
10 19 12 23 12 15 0z m1645 -30 c-6 -11 -15 -18 -21 -15 -15 10 -11 23 9 28 9
3 18 5 20 6 1 0 -2 -8 -8 -19z m-609 -87 c-11 -43 -39 -92 -53 -93 -3 0 4 21
17 48 12 26 26 63 30 82 5 19 10 29 13 22 2 -7 -1 -34 -7 -59z m-657 44 c17
-12 17 -14 3 -20 -11 -4 -21 1 -27 13 -12 23 -2 26 24 7z m65 -31 c8 -10 7
-21 -5 -45 -8 -17 -17 -31 -19 -31 -12 0 -25 43 -19 65 7 27 25 33 43 11z
m748 -11 c-23 -22 -33 -18 -12 5 10 11 20 18 23 16 2 -3 -3 -12 -11 -21z m735
-53 c18 -16 54 -43 79 -60 l46 -31 1 -81 c1 -50 -2 -79 -8 -75 -13 8 -140 195
-140 207 0 5 -7 22 -15 38 -19 38 -5 38 37 2z m-2443 -18 c-35 -20 -45 -17
-18 5 13 11 28 17 33 14 5 -3 -2 -12 -15 -19z m-371 -4 c-9 -13 -16 -16 -23
-9 -7 7 -5 13 5 19 24 15 31 11 18 -10z m3377 -20 c3 -5 1 -10 -4 -10 -6 0
-11 5 -11 10 0 6 2 10 4 10 3 0 8 -4 11 -10z m-2920 -10 c-3 -5 -12 -10 -18
-10 -7 0 -6 4 3 10 19 12 23 12 15 0z m1029 -99 c20 -23 36 -46 36 -51 0 -4
-11 -15 -24 -24 -20 -12 -31 -13 -56 -4 -27 9 -39 25 -74 98 l-43 88 63 -31
c36 -19 77 -50 98 -76z m2166 63 c0 -8 -43 -54 -51 -54 -9 0 -18 48 -11 55 7
7 62 6 62 -1z m-430 -101 c-11 -44 -38 -92 -52 -93 -4 0 -1 12 7 27 8 14 22
53 32 87 20 67 31 50 13 -21z m165 17 c-10 -11 -20 -18 -23 -15 -3 3 3 14 13
25 10 11 20 18 23 15 3 -3 -3 -14 -13 -25z m-3081 2 c3 -5 -8 -19 -24 -30
l-29 -22 17 30 c17 31 27 36 36 22z m1311 -91 c3 -5 1 -12 -4 -15 -5 -3 -11 1
-15 9 -6 16 9 21 19 6z m-55 -21 c0 -5 -4 -10 -10 -10 -5 0 -10 5 -10 10 0 6
5 10 10 10 6 0 10 -4 10 -10z m-1080 -10 c0 -5 -7 -7 -15 -4 -8 4 -15 8 -15
10 0 2 7 4 15 4 8 0 15 -4 15 -10z m1150 -86 c0 -30 -2 -34 -14 -25 -11 9 -11
17 -2 36 6 14 12 25 14 25 1 0 2 -16 2 -36z m-622 -53 c10 -6 11 -13 1 -34
-14 -31 -30 -34 -65 -11 l-25 17 28 18 c31 21 42 23 61 10z m980 -33 c16 -16
15 -33 -4 -52 -24 -25 -36 -19 -33 17 4 50 13 59 37 35z m1902 -22 c0 -45 -40
-94 -118 -146 -35 -23 -53 -29 -75 -24 -18 4 -37 0 -54 -11 -25 -17 -27 -17
-40 1 -7 10 -13 25 -13 35 0 9 -9 28 -21 43 -11 14 -18 30 -15 34 3 5 27 10
54 11 77 2 188 27 224 49 40 25 58 27 58 8z m-3492 -50 c23 -6 42 -16 42 -22
0 -6 9 -19 20 -29 26 -24 25 -36 -2 -31 -13 3 -34 7 -48 10 -32 7 -90 60 -90
82 0 12 5 14 18 9 9 -5 36 -13 60 -19z m3005 -96 c0 -85 0 -85 -33 -107 -18
-13 -41 -23 -51 -23 -10 0 -21 -4 -24 -10 -12 -20 -25 -9 -25 21 0 18 5 72 12
121 l12 89 54 -3 55 -3 0 -85z m-463 24 c0 -8 -4 -12 -10 -9 -5 3 -10 13 -10
21 0 8 5 12 10 9 6 -3 10 -13 10 -21z m-810 -63 c0 -12 -20 -25 -27 -18 -7 7
6 27 18 27 5 0 9 -4 9 -9z m-1520 -97 c0 -2 -9 -4 -20 -4 -11 0 -20 4 -20 9 0
5 9 7 20 4 11 -3 20 -7 20 -9z m3840 -34 c0 -19 -60 -41 -94 -35 -20 4 -36 2
-40 -4 -4 -6 -23 -11 -41 -11 -23 0 -38 -6 -44 -19 -6 -10 -17 -21 -26 -25
-12 -4 -14 0 -9 19 4 16 0 35 -10 50 l-16 24 129 -6 c91 -4 130 -2 135 6 9 14
16 14 16 1z m-1724 -57 c-3 -10 -8 -30 -12 -45 -8 -36 -19 -35 -34 2 -10 24
-10 33 0 45 18 22 53 20 46 -2z m-2212 -72 c33 -7 49 -32 19 -29 -37 3 -52 -3
-58 -22 -3 -11 -9 -20 -13 -20 -8 0 -42 57 -42 71 0 10 49 10 94 0z m3536 -41
c0 -5 -9 -10 -20 -10 -11 0 -20 5 -20 10 0 6 9 10 20 10 11 0 20 -4 20 -10z
m-3397 -24 c29 -13 37 -22 37 -41 0 -25 -1 -25 -25 -9 -15 10 -34 14 -48 10
-20 -5 -26 1 -41 31 l-17 36 28 -6 c15 -3 45 -13 66 -21z m1377 -75 c0 -5 14
-23 32 -40 36 -35 34 -46 -6 -31 -40 15 -51 13 -85 -16 -37 -31 -48 -26 -47
22 2 32 6 37 40 49 20 7 40 16 43 19 9 9 23 7 23 -3z m1936 -20 c-7 -10 -86
-20 -86 -10 0 13 15 19 52 19 22 0 37 -4 34 -9z m-226 -106 c0 -9 -71 -145
-78 -149 -6 -3 -15 8 -21 25 -13 39 -38 58 -73 59 -47 0 -77 -18 -94 -57 -9
-21 -23 -53 -31 -72 -11 -25 -17 -31 -26 -22 -21 21 -86 13 -111 -14 -34 -36
-46 -31 -46 18 0 47 -4 43 174 111 38 14 62 30 67 43 9 24 23 35 53 39 12 2
46 7 76 12 50 8 110 12 110 7z m-1215 -298 c11 -18 35 -39 53 -49 30 -15 66
-47 181 -159 20 -20 56 -48 81 -63 25 -14 58 -37 75 -51 29 -24 30 -25 32
-142 1 -65 3 -147 3 -183 2 -100 6 -96 -52 -72 -29 12 -58 7 -58 -10 0 -6 7
-7 16 -4 8 3 12 2 9 -4 -6 -10 6 -14 37 -11 9 1 19 -3 23 -9 3 -5 2 -10 -3
-10 -12 0 -10 -33 2 -41 14 -10 -2 -28 -22 -24 -9 2 -25 4 -36 4 -14 1 -17 7
-14 24 3 17 -2 26 -19 34 -14 7 -23 7 -23 1 0 -5 -5 -6 -11 -2 -8 4 -9 0 -4
-15 5 -17 2 -21 -14 -21 -12 0 -21 6 -21 13 0 12 -35 39 -57 43 -15 3 -5 -27
15 -43 13 -11 13 -13 -1 -19 -9 -3 -14 -13 -11 -22 5 -13 2 -13 -10 2 -9 11
-16 28 -16 38 0 10 -4 18 -10 18 -13 0 -12 -10 5 -40 8 -14 14 -31 15 -37 0
-22 -38 -14 -45 8 -4 13 -12 18 -21 15 -18 -7 -11 8 19 41 11 13 17 26 14 30
-11 10 23 42 38 36 9 -3 13 2 12 16 -1 12 -3 21 -4 21 -12 0 -73 -73 -73 -87
-1 -17 -2 -16 -15 1 -15 19 -15 19 -15 -2 0 -13 -7 -25 -16 -29 -8 -3 -13 -12
-10 -19 6 -17 5 -17 -28 -4 -25 9 -37 40 -16 40 6 0 10 -4 10 -10 0 -5 5 -10
11 -10 6 0 8 7 5 16 -4 9 -1 23 5 30 8 10 8 14 0 14 -6 0 -11 -5 -11 -12 0 -6
-3 -8 -7 -5 -3 4 -12 2 -20 -4 -10 -9 -13 -8 -13 1 0 6 -9 23 -19 37 l-20 24
-12 -41 c-7 -23 -19 -44 -26 -47 -7 -3 -13 -14 -13 -24 0 -10 -5 -19 -10 -19
-12 0 -7 70 6 92 6 11 4 11 -7 0 -11 -11 -16 -7 -25 20 l-11 33 -7 -53 c-4
-29 -4 -57 -1 -62 3 -6 2 -10 -2 -10 -5 0 -14 10 -22 21 -8 15 -15 18 -20 11
-5 -8 -20 -1 -44 19 -38 31 -38 31 -21 58 16 24 16 25 1 12 -9 -7 -17 -9 -17
-3 0 5 7 15 15 22 8 7 15 17 15 23 0 5 -9 -2 -21 -17 -11 -14 -18 -30 -15 -34
3 -5 -6 -8 -20 -6 -24 2 -26 0 -20 -27 4 -24 2 -29 -13 -29 -10 0 -24 7 -31
15 -7 8 -20 15 -28 15 -13 0 -12 3 4 15 18 14 18 15 -11 40 -26 22 -28 26 -14
37 8 7 31 25 50 41 42 34 10 24 -48 -16 -43 -28 -90 -34 -85 -9 1 7 -9 12 -23
12 -35 0 -35 46 0 62 14 6 25 15 25 19 0 5 -16 0 -35 -11 -41 -23 -49 -25 -39
-8 5 8 2 9 -11 5 -14 -6 -17 -3 -13 16 6 29 -14 51 -31 34 -8 -8 -11 -7 -11 5
0 9 6 23 13 30 8 7 13 23 12 36 -2 23 -15 44 -15 23 0 -7 -4 -9 -10 -6 -5 3
-10 1 -10 -6 0 -10 -3 -10 -12 -1 -8 8 -8 15 2 27 16 19 21 55 8 55 -5 0 -8
-10 -6 -22 2 -15 -2 -23 -12 -23 -9 0 -14 -8 -12 -18 2 -9 -1 -16 -6 -15 -6 2
-19 -7 -30 -20 l-19 -22 -6 28 c-6 29 1 313 7 320 2 2 22 -6 45 -17 22 -12 45
-21 52 -21 15 0 138 58 172 82 15 11 44 24 65 30 20 6 47 19 61 29 31 24 77
24 151 -1 67 -23 93 -20 136 15 16 13 31 24 34 24 3 0 14 -14 25 -32z m-1279
-343 c-4 -12 -10 -14 -17 -7 -5 5 -7 17 -3 27 4 12 10 14 17 7 5 -5 7 -17 3
-27z m-26 -20 c0 -16 -16 -19 -25 -4 -8 13 4 32 16 25 5 -4 9 -13 9 -21z m-25
-35 c11 -17 -1 -21 -15 -4 -8 9 -8 15 -2 15 6 0 14 -5 17 -11z m665 -50 c0
-11 -4 -18 -9 -15 -5 4 -11 0 -14 -6 -2 -7 -8 -10 -12 -6 -11 11 13 61 25 53
6 -3 10 -15 10 -26z m-410 -39 c0 -5 -4 -10 -10 -10 -5 0 -10 5 -10 10 0 6 5
10 10 10 6 0 10 -4 10 -10z m377 -22 c-3 -8 -6 -5 -6 6 -1 11 2 17 5 13 3 -3
4 -12 1 -19z m678 -289 c2 -10 7 -24 10 -29 14 -23 -8 -28 -29 -7 -18 17 -21
27 -15 45 5 12 5 22 0 22 -5 0 -7 10 -4 21 6 21 7 21 20 -5 8 -15 16 -36 18
-47z m-245 -36 c0 -7 -4 -13 -10 -13 -5 0 -10 12 -10 28 0 21 2 24 10 12 5 -8
10 -21 10 -27z m905 17 c3 -5 2 -10 -4 -10 -5 0 -13 5 -16 10 -3 6 -2 10 4 10
5 0 13 -4 16 -10z m-348 -46 c-3 -3 -12 -4 -19 -1 -8 3 -5 6 6 6 11 1 17 -2
13 -5z m-491 -23 c0 -16 -3 -17 -14 -9 -12 10 -7 19 13 28 1 0 1 -9 1 -19z
m-36 -5 c0 -3 -4 -8 -10 -11 -5 -3 -10 -1 -10 4 0 6 5 11 10 11 6 0 10 -2 10
-4z m-3402 -1776 c12 -18 22 -40 21 -49 0 -9 -4 -6 -10 9 -13 32 -49 70 -66
70 -7 0 -13 4 -13 10 0 19 45 -8 68 -40z"/>
<path d="M9865 4130 c3 -5 8 -10 11 -10 2 0 4 5 4 10 0 6 -5 10 -11 10 -5 0
-7 -4 -4 -10z"/>
<path d="M10614 3951 c46 -25 66 -27 46 -6 -9 8 -31 17 -50 20 l-35 6 39 -20z"/>
<path d="M10439 3931 c-24 -20 -24 -20 -3 -21 12 0 25 7 28 16 10 25 1 27 -25
5z"/>
<path d="M8484 10135 c-26 -26 -48 -62 -55 -87 -7 -24 -15 -46 -18 -50 -4 -4
-26 9 -51 28 -95 76 -151 89 -225 55 -50 -23 -78 -53 -69 -75 8 -21 36 -20 84
4 63 32 83 27 176 -47 35 -28 40 -37 36 -63 -6 -40 12 -45 79 -24 84 27 94 39
58 72 -23 22 -19 53 14 115 27 49 53 55 112 23 37 -19 52 -23 67 -15 34 18 17
49 -42 80 -80 42 -114 39 -166 -16z"/>
<path d="M1956 9641 c-55 -78 -59 -89 -70 -204 -3 -26 -8 -52 -11 -58 -15 -22
-20 -333 -7 -389 5 -19 6 -54 4 -77 -4 -39 -7 -43 -31 -43 -17 0 -35 10 -51
30 -14 16 -39 33 -57 36 -26 5 -34 2 -48 -20 -25 -38 -6 -108 55 -206 85 -135
89 -156 81 -375 -2 -50 1 -62 18 -76 13 -11 21 -29 21 -49 0 -23 5 -33 20 -37
32 -8 13 -22 -23 -16 -25 4 -37 0 -52 -17 -21 -23 -27 -86 -12 -127 13 -35
-10 -28 -28 8 -33 63 -117 139 -155 139 -19 0 -60 -48 -60 -71 0 -12 7 -31 17
-41 9 -11 11 -18 5 -18 -25 0 -10 -38 31 -80 53 -55 66 -81 60 -114 -4 -19 -2
-26 8 -24 10 2 13 -7 11 -35 -3 -27 0 -37 10 -35 7 2 12 -3 10 -9 -1 -7 6 -13
16 -13 11 0 27 -9 37 -20 10 -11 13 -20 7 -20 -25 0 -11 -31 16 -36 24 -5 28
-10 27 -35 -1 -16 2 -29 8 -29 5 0 7 -7 3 -15 -3 -10 1 -15 11 -15 13 0 14 -3
5 -12 -17 -17 -44 11 -110 112 -91 141 -120 161 -177 124 -31 -20 -32 -51 -4
-105 l20 -40 -25 -20 c-38 -30 -34 -67 14 -130 22 -30 40 -56 40 -59 0 -3 -12
-5 -27 -4 -16 1 -40 -6 -55 -14 -33 -19 -37 -61 -13 -117 14 -36 109 -135 128
-135 6 0 45 -33 87 -72 42 -40 89 -83 103 -95 30 -24 34 -41 12 -49 -9 -4 -31
8 -55 30 -62 56 -128 48 -150 -19 -11 -33 -9 -38 20 -75 23 -29 30 -48 28 -71
-4 -41 -25 -49 -38 -14 -6 15 -20 39 -31 54 -11 14 -40 58 -64 96 -80 128
-125 172 -160 159 -18 -7 -11 -99 11 -132 10 -15 26 -43 36 -61 17 -34 17 -35
-3 -57 -25 -27 -21 -65 14 -130 12 -23 35 -67 51 -98 15 -31 32 -56 36 -56 4
0 15 -15 25 -33 14 -26 15 -38 6 -54 -20 -39 -2 -79 58 -130 108 -90 115 -103
56 -103 -31 0 -66 -27 -78 -61 -3 -9 -18 -19 -32 -23 -23 -6 -36 0 -74 32 -61
51 -114 82 -138 82 -32 0 -73 -38 -73 -68 0 -20 17 -43 67 -91 38 -35 85 -75
107 -88 l38 -25 -30 -18 c-16 -10 -31 -23 -33 -29 -5 -14 -112 84 -128 117 -7
12 -9 27 -6 32 4 6 -1 13 -10 16 -8 4 -14 11 -13 18 5 22 -97 127 -121 124
-11 -2 -15 3 -13 18 1 11 -7 29 -18 39 -11 10 -20 15 -20 11 0 -8 -26 16 -27
24 0 35 -52 65 -68 40 -10 -16 13 -48 37 -52 17 -2 23 -10 24 -29 1 -33 11
-49 30 -49 8 0 14 -5 14 -11 0 -18 40 -69 55 -69 19 0 65 -44 65 -61 0 -8 11
-34 25 -58 14 -23 25 -45 25 -48 0 -3 -15 4 -32 14 -84 49 -129 48 -148 -3
-13 -32 10 -69 59 -94 20 -10 54 -34 76 -53 l40 -35 -27 -11 c-33 -12 -40 -24
-40 -66 0 -27 -5 -34 -24 -39 -14 -4 -30 -18 -36 -31 -14 -30 -18 -30 -61 -5
-38 22 -79 16 -90 -14 -16 -40 -142 -2 -212 65 -17 16 -35 29 -41 29 -5 0 -23
13 -40 28 -40 36 -101 58 -189 68 -89 10 -135 6 -157 -13 -22 -20 -22 -40 -3
-106 15 -50 73 -124 121 -154 109 -69 164 -94 245 -114 75 -19 94 -28 115 -53
14 -17 35 -42 47 -55 15 -17 20 -33 18 -59 -2 -30 3 -40 42 -76 43 -40 117
-73 272 -122 57 -18 61 -21 70 -59 6 -22 14 -46 19 -53 14 -22 -3 -27 -32 -9
-15 10 -74 41 -132 69 -106 51 -157 85 -285 189 -91 73 -138 95 -173 83 -22
-8 -27 -16 -25 -43 0 -18 9 -39 20 -47 16 -13 13 -14 -32 -8 -27 4 -79 17
-115 29 -127 46 -170 62 -177 69 -3 3 -21 6 -38 6 -38 0 -85 -39 -85 -70 0
-21 64 -68 151 -110 24 -12 55 -27 69 -34 26 -13 117 -42 160 -51 50 -10 57
-21 31 -49 -28 -30 -23 -66 11 -88 13 -8 73 -33 133 -57 171 -65 157 -58 150
-89 -12 -56 87 -137 178 -147 57 -7 81 -27 73 -61 -8 -29 23 -58 86 -82 86
-33 168 -73 168 -82 0 -5 -5 -12 -10 -15 -17 -11 -11 -61 11 -89 11 -15 37
-35 57 -45 76 -39 85 -68 69 -218 -9 -83 -13 -73 115 -296 182 -318 304 -492
562 -801 131 -157 457 -485 615 -619 111 -94 114 -96 141 -82 14 7 33 21 40
30 28 33 152 86 215 91 33 2 93 12 133 21 68 16 79 16 180 0 118 -19 228 -22
237 -8 3 6 -14 12 -37 14 -24 2 1 3 55 1 54 -1 101 -4 104 -8 4 -3 36 -7 72
-8 148 -3 -147 -20 -389 -21 -135 -1 -252 -6 -260 -11 -8 -6 -46 -15 -85 -21
l-70 -11 101 -7 c55 -4 115 -12 133 -18 34 -12 37 -35 5 -32 -170 18 -334 8
-382 -23 -35 -23 -20 -28 40 -13 102 25 243 10 255 -28 3 -8 -6 -9 -34 -2 -84
19 -243 0 -341 -42 l-44 -19 22 -38 c13 -20 36 -62 52 -92 41 -75 49 -82 104
-84 54 -2 119 -29 128 -52 4 -12 -1 -11 -22 4 -15 10 -36 21 -47 24 -11 3 -29
9 -40 12 -11 4 -4 -2 16 -13 46 -26 64 -47 48 -56 -6 -4 -14 -3 -18 2 -9 14
-69 24 -76 13 -3 -6 4 -10 17 -10 17 0 20 -2 9 -9 -12 -8 -12 -14 -1 -41 10
-23 26 -38 59 -52 25 -10 48 -22 51 -26 12 -17 61 -42 70 -37 5 3 7 0 5 -7 -3
-8 6 -25 20 -38 l26 -25 37 20 c94 51 212 276 212 405 0 49 -32 130 -51 130
-6 0 -27 -9 -45 -21 l-34 -21 21 -30 c30 -42 41 -108 28 -171 -13 -62 -42
-129 -63 -147 -9 -7 -4 8 10 35 38 68 45 167 15 228 -12 25 -29 48 -37 51 -19
7 -85 -53 -66 -61 12 -5 62 -76 62 -88 0 -16 -21 0 -39 30 -28 47 -44 51 -76
20 -40 -41 -42 -22 -3 27 19 24 65 88 103 143 102 151 78 137 272 154 99 9
232 -5 183 -20 -14 -4 -44 -7 -68 -8 -24 -1 -76 -14 -115 -30 -40 -16 -80 -32
-91 -35 -13 -4 -16 -11 -11 -24 27 -62 34 -94 35 -145 l0 -57 49 25 c53 26
182 77 187 73 1 -2 -52 -28 -117 -58 -116 -53 -144 -75 -137 -106 2 -11 14 -7
48 16 25 16 61 35 80 41 19 6 56 24 81 40 42 27 181 70 218 68 9 0 -24 -11
-73 -25 -49 -13 -115 -40 -146 -59 -32 -19 -64 -35 -72 -35 -8 0 -38 -16 -68
-35 -30 -19 -61 -35 -68 -35 -12 0 -37 -49 -29 -57 3 -2 24 11 48 29 70 53
115 78 140 78 14 0 48 16 78 35 29 19 65 37 79 40 24 4 23 3 -6 -10 -18 -8
-51 -29 -73 -45 -23 -16 -58 -33 -78 -36 -20 -4 -50 -16 -67 -28 -117 -78
-147 -102 -161 -129 -9 -17 -41 -58 -72 -91 l-56 -59 45 6 c33 4 51 13 68 34
84 101 110 127 168 169 36 25 67 44 70 41 3 -3 -5 -11 -18 -17 -106 -56 -258
-235 -288 -342 -15 -49 11 -127 61 -185 189 -218 443 -249 660 -81 48 37 83
110 114 240 35 144 55 200 112 310 48 94 99 160 137 180 12 5 4 -4 -17 -22
-66 -56 -177 -311 -212 -487 -7 -34 10 -55 20 -24 3 10 24 47 45 80 22 34 57
92 77 129 20 37 49 92 66 122 16 30 50 84 76 120 77 108 113 172 102 183 -6 6
-13 2 -20 -11 -22 -41 -60 -45 -149 -17 -45 14 -95 37 -112 52 l-31 26 -40
-22 c-40 -23 -69 -22 -69 1 0 7 -14 19 -32 27 -30 14 -91 10 -233 -15 -21 -4
-26 -2 -15 4 22 15 194 36 235 29 34 -6 35 -5 29 21 -4 15 -9 31 -12 36 -6 11
-158 0 -201 -15 -18 -6 -34 -9 -37 -6 -12 12 95 37 158 37 69 0 85 10 46 31
-14 7 -48 9 -102 5 -54 -5 -76 -3 -66 3 7 5 47 13 87 17 40 3 73 8 73 11 0 16
-33 63 -44 63 -9 0 -12 7 -9 18 8 32 -67 103 -153 147 -68 33 -89 39 -145 40
-37 0 -62 3 -55 7 31 21 149 -2 219 -42 22 -13 22 1 -1 31 -95 126 -139 301
-112 449 6 36 14 90 16 120 l5 55 -26 -49 c-38 -69 -50 -47 -25 45 34 123 39
173 30 262 -16 154 -29 202 -85 295 -69 116 -88 176 -86 271 1 90 20 170 60
249 l28 57 -23 25 c-18 18 -24 21 -24 9 0 -27 -26 -17 -28 10 -1 20 0 23 8 11
5 -8 10 -12 11 -7 5 26 4 33 -4 45 -6 7 -9 37 -8 67 1 30 -3 55 -7 55 -5 0
-31 -12 -57 -26 -33 -19 -51 -37 -62 -63 -26 -67 -35 -79 -73 -96 -69 -31
-159 -17 -201 31 -32 37 -39 60 -25 80 13 17 16 16 60 -24 60 -55 99 -57 174
-7 28 20 52 40 52 46 0 6 -12 25 -26 42 -20 23 -22 32 -12 38 19 13 26 11 30
-6 6 -31 252 126 368 234 24 23 59 53 77 67 22 17 33 33 33 51 0 20 4 24 20
20 22 -6 28 21 9 40 -18 18 -4 29 72 59 55 22 79 38 107 73 21 24 49 57 63 72
45 48 173 219 246 329 159 239 300 508 379 727 l34 93 -30 0 c-18 0 -33 -6
-36 -15 -7 -17 -74 -21 -102 -6 -9 5 -39 5 -65 1 -33 -5 -50 -4 -51 4 -2 6 -8
26 -14 44 -10 30 -9 33 6 27 9 -3 35 -9 59 -12 51 -7 73 7 73 49 0 16 6 31 15
34 22 9 65 -4 65 -19 0 -15 47 -67 60 -67 6 0 10 -7 10 -15 0 -8 5 -15 10 -15
23 0 7 44 -30 82 -45 48 -47 53 -22 67 31 16 72 84 66 107 -8 29 -46 48 -78
40 -19 -5 -35 0 -55 15 l-30 22 -41 -22 c-58 -30 -46 -9 20 37 32 22 70 61 91
93 50 74 54 94 30 118 -24 24 -63 16 -104 -21 -29 -27 -104 -64 -112 -56 -9 8
13 58 25 58 6 0 18 6 25 13 8 6 38 30 67 51 64 48 110 113 101 144 -3 12 -13
22 -22 22 -22 0 -61 -28 -61 -43 0 -13 -23 -39 -86 -97 -42 -38 -59 -27 -20
14 62 68 74 160 24 184 -16 7 -28 17 -28 21 0 16 -39 19 -66 5 -45 -24 -52
-19 -48 39 3 55 25 126 50 165 8 13 14 37 12 55 -3 31 -5 32 -51 33 -27 1 -50
4 -52 6 -3 2 19 62 47 133 63 160 68 235 14 221 -21 -5 -22 -2 -22 50 1 47 -3
58 -23 73 l-23 17 17 67 c15 58 15 81 5 179 -7 62 -13 114 -15 116 -2 2 1 18
7 35 20 63 19 103 -3 123 -15 14 -24 16 -37 7 -21 -13 -30 -56 -42 -203 -6
-63 -15 -130 -20 -149 -5 -19 -9 -79 -9 -135 1 -56 0 -109 0 -118 -1 -25 -28
-23 -41 3 -8 14 -19 19 -38 17 -25 -3 -27 -7 -26 -44 0 -28 11 -58 33 -94 39
-63 50 -118 37 -182 -8 -40 -7 -50 8 -67 21 -24 18 -53 -9 -66 -15 -8 -20 -21
-20 -49 0 -30 -2 -34 -10 -20 -15 28 -72 84 -84 84 -6 0 -20 -9 -31 -20 -16
-16 -18 -25 -11 -39 6 -10 8 -21 5 -24 -3 -3 0 -16 7 -29 7 -12 12 -27 11 -31
-1 -5 2 -6 7 -2 13 7 27 -20 36 -68 4 -21 16 -43 26 -51 10 -7 16 -16 11 -20
-4 -4 0 -13 9 -19 9 -7 19 -23 23 -37 4 -14 -8 -2 -28 29 -42 64 -75 101 -91
101 -7 0 -19 -8 -29 -18 -13 -16 -14 -24 -5 -51 7 -21 8 -36 2 -40 -22 -14
-21 -41 2 -75 l24 -36 -24 0 c-29 0 -49 -31 -40 -63 4 -12 50 -63 103 -114 53
-50 93 -95 89 -99 -4 -4 -16 2 -27 14 -28 30 -65 28 -86 -3 -15 -23 -15 -26 6
-55 14 -19 19 -35 13 -41 -5 -5 -30 26 -63 81 -52 85 -77 109 -100 95 -15 -9
-12 -31 11 -82 15 -32 18 -48 10 -56 -6 -6 -11 -18 -11 -27 0 -19 57 -137 70
-145 18 -11 11 -34 -25 -84 -19 -26 -35 -55 -35 -63 0 -23 -9 -27 -35 -14
l-23 11 39 42 c43 47 46 58 23 91 -29 42 -101 21 -183 -55 -18 -16 -28 -19
-38 -12 -6 6 -17 8 -23 4 -5 -3 -10 -2 -10 3 0 21 -50 62 -75 62 -38 0 -28 17
41 73 62 51 79 83 63 124 -8 21 -5 32 18 62 32 41 113 197 113 216 0 7 -8 23
-19 36 -18 24 -18 25 7 64 15 22 27 45 28 50 2 6 7 24 12 42 14 45 -3 66 -46
57 -17 -4 -32 -11 -32 -16 0 -5 -11 -24 -25 -42 -14 -18 -25 -37 -25 -41 0 -5
-8 -17 -17 -27 -21 -24 -57 -82 -78 -125 -18 -39 -30 -42 -39 -10 -4 15 4 35
25 64 29 41 29 43 15 78 -15 35 -29 41 -81 36 -11 -1 -34 -15 -51 -32 -31 -30
-54 -32 -54 -4 0 8 19 27 43 44 23 16 63 50 90 75 26 25 51 46 55 46 15 0 101
95 111 123 25 65 0 107 -63 107 l-30 0 26 28 c52 56 63 110 27 135 -19 14 -19
17 -6 43 28 56 29 71 6 93 -48 44 -72 28 -168 -110 -33 -47 -66 -85 -77 -87
-13 -2 -15 0 -7 5 11 8 20 37 22 71 1 6 10 12 20 12 26 0 37 20 20 32 -8 5
-10 11 -4 14 6 2 24 13 41 23 26 16 31 24 28 50 -3 23 0 31 12 31 8 0 12 5 9
11 -13 19 5 57 46 100 28 29 39 48 35 62 -2 11 0 28 7 38 8 13 8 24 -2 42 -33
63 -93 44 -157 -48 -20 -30 -39 -55 -40 -55 -2 0 0 23 3 50 7 63 -12 90 -66
90 -29 1 -33 3 -18 11 9 6 17 22 17 37 0 17 8 32 21 40 19 12 20 19 13 125 -7
126 -3 143 64 251 49 80 62 110 62 149 0 63 -42 75 -92 27 -45 -44 -65 -40
-73 14 -4 25 -4 50 0 57 11 16 7 279 -5 318 -10 35 -27 260 -22 304 1 16 -5
53 -14 83 -9 31 -14 64 -11 75 3 10 -3 29 -13 41 -15 20 -21 21 -44 10 -45
-20 -52 -72 -27 -180 7 -28 11 -71 8 -94 -19 -145 -29 -205 -37 -220 -14 -25
-12 -87 4 -144 8 -27 17 -73 21 -101 6 -50 5 -53 -19 -64 -37 -17 -60 -97 -44
-151 13 -46 7 -55 -28 -39 -19 8 -30 9 -39 1 -14 -12 -31 -68 -26 -85 2 -5 8
-32 13 -60 8 -46 31 -114 64 -192 8 -17 14 -40 14 -50 0 -10 5 -24 11 -30 5
-5 16 -31 24 -56 13 -45 13 -47 -7 -58 -16 -8 -30 -8 -58 1 -28 9 -42 9 -58 1
-28 -15 -39 -74 -19 -104 14 -22 59 -130 72 -174 13 -45 11 -175 -2 -180 -7
-3 -38 5 -67 17 -59 24 -91 20 -99 -10 -3 -14 -14 -20 -31 -20 -19 0 -32 -9
-45 -31 -33 -54 -8 -145 65 -236 19 -23 34 -51 34 -63 0 -21 0 -21 -30 -3 -17
10 -42 34 -56 55 -15 21 -34 40 -44 43 -19 6 -70 67 -74 88 -7 32 -21 47 -53
58 -40 13 -53 3 -53 -40 0 -25 39 -101 52 -101 4 0 8 -6 8 -14 0 -14 12 -25
94 -91 21 -16 56 -44 77 -62 22 -17 47 -34 57 -37 23 -8 46 -96 25 -96 -25 0
-130 59 -167 94 -20 19 -55 41 -77 50 -36 15 -42 15 -64 0 -49 -32 -43 -67 30
-184 40 -65 73 -103 106 -120 13 -7 30 -19 37 -27 8 -7 29 -25 48 -39 19 -15
34 -31 34 -36 0 -15 -52 1 -76 23 -29 28 -79 25 -111 -7 -24 -24 -29 -25 -69
-15 -45 12 -68 7 -96 -17 -25 -21 -24 -84 2 -107 11 -10 22 -26 25 -36 6 -17
87 -79 104 -79 4 0 31 -7 60 -15 52 -16 52 -16 45 -51 -4 -24 -1 -42 11 -60
16 -25 20 -26 75 -21 33 4 78 10 101 13 l42 7 -23 -31 c-18 -24 -22 -39 -17
-68 l6 -37 -67 8 c-37 5 -80 8 -97 6 -16 -1 -63 -3 -103 -5 -40 -3 -79 -7 -87
-10 -7 -2 -34 15 -59 40 -25 24 -46 41 -46 38 0 -4 -7 -1 -15 6 -8 7 -22 9
-31 6 -24 -9 -12 -73 19 -102 22 -20 25 -30 20 -60 -5 -31 -2 -40 18 -55 13
-11 41 -22 62 -25 49 -9 56 -22 18 -35 -34 -12 -51 -35 -51 -68 0 -26 54 -61
94 -61 25 0 27 -2 15 -16 -8 -9 -14 -24 -14 -33 0 -17 -9 -17 -62 -6 -44 10
-87 -31 -81 -77 6 -37 -6 -42 -55 -24 -28 9 -34 15 -23 19 19 8 22 57 4 75 -9
9 -4 21 26 51 26 27 38 47 38 70 1 42 -16 60 -42 43 -11 -6 -27 -12 -36 -12
-10 0 -14 -5 -10 -15 3 -9 0 -15 -9 -15 -8 0 -26 -12 -41 -27 -26 -26 -30 -26
-127 -24 -56 1 -110 7 -120 13 -13 6 -39 6 -81 -1 -35 -6 -80 -11 -102 -11
l-39 0 3 46 c3 37 0 50 -19 70 -12 13 -20 27 -16 30 3 3 49 -1 102 -10 79 -14
101 -14 123 -4 33 16 51 71 33 100 -16 26 -7 32 69 53 72 20 132 52 156 82 10
13 31 38 45 56 35 44 41 65 29 103 -19 58 -75 78 -146 52 -31 -11 -35 -10 -58
15 -41 44 -113 48 -146 7 -17 -21 -80 -38 -80 -21 0 14 32 42 168 146 39 29
92 101 92 124 0 6 5 11 10 11 6 0 10 5 10 12 0 6 9 21 19 32 31 33 44 96 26
123 -20 30 -51 45 -78 38 -39 -11 -86 -35 -94 -48 -25 -38 -173 -127 -213
-127 -21 0 -21 0 0 79 3 13 21 32 39 42 19 10 46 30 61 44 14 14 30 25 34 25
5 0 25 15 46 33 20 17 53 45 74 60 20 15 36 35 36 43 0 8 9 25 21 37 38 40 59
92 50 123 -9 35 -27 40 -75 20 -25 -10 -37 -23 -42 -43 -11 -42 -70 -123 -90
-123 -13 0 -74 -66 -74 -80 0 -12 -80 -53 -81 -43 -4 24 5 51 25 73 68 77 100
141 109 217 7 57 -25 107 -70 111 -22 2 -34 10 -38 23 -12 38 -51 42 -115 13
-69 -31 -96 -29 -92 6 1 14 4 63 5 110 3 73 9 98 42 175 21 50 45 100 53 113
12 19 13 30 3 62 -15 52 -41 66 -93 51 -22 -7 -52 -9 -68 -6 -31 7 -34 25 -10
80 7 17 19 44 26 62 8 17 14 37 14 45 0 7 6 25 14 40 8 15 17 42 21 60 4 18
12 38 17 45 9 11 29 82 48 168 11 51 2 100 -21 121 -18 16 -22 16 -54 1 -40
-19 -47 -10 -33 42 11 37 3 122 -12 151 -6 11 -22 25 -38 32 -20 10 -26 20
-25 38 4 51 14 107 30 160 18 59 19 132 3 165 -5 11 -14 58 -20 105 -5 47 -14
114 -20 148 -5 35 -7 68 -4 73 3 5 3 9 0 9 -2 0 -30 -35 -60 -79z m1894 -1791
c0 -5 -5 -10 -11 -10 -5 0 -7 5 -4 10 3 6 8 10 11 10 2 0 4 -4 4 -10z m-2115
-70 c3 -5 1 -10 -4 -10 -6 0 -11 5 -11 10 0 6 2 10 4 10 3 0 8 -4 11 -10z
m1740 -281 c12 -19 -5 -23 -22 -6 -16 16 -16 17 -1 17 9 0 20 -5 23 -11z
m-1280 -129 c-21 -23 -35 -26 -35 -6 0 15 14 24 39 25 11 1 10 -4 -4 -19z
m1237 -517 c23 -20 25 -65 3 -56 -14 5 -45 52 -45 68 0 11 24 4 42 -12z m388
-93 c-33 -23 -50 -30 -50 -22 0 5 10 14 23 20 28 14 47 15 27 2z m-1561 -147
c-11 -29 -47 -73 -60 -73 -9 0 -17 32 -11 48 4 13 60 52 74 52 4 0 3 -12 -3
-27z m2431 -53 c-6 -11 -15 -18 -21 -14 -6 4 -6 11 2 20 17 21 31 17 19 -6z
m-2898 -61 c16 -12 27 -23 24 -26 -5 -5 -76 35 -76 43 0 10 24 2 52 -17z
m1728 -37 c0 -5 -6 -16 -13 -26 -11 -14 -18 -16 -32 -9 -16 9 -16 11 6 27 26
18 39 20 39 8z m810 -38 l31 -27 -53 -22 c-29 -12 -54 -21 -55 -20 -5 2 33 95
39 95 3 0 21 -12 38 -26z m-204 -61 c1 -10 5 -27 9 -38 6 -17 5 -16 -10 3 -9
13 -14 29 -11 37 7 20 12 19 12 -2z m-36 -38 c14 -16 10 -18 -14 -9 -9 3 -16
10 -16 15 0 14 16 11 30 -6z m548 -23 c6 -18 -15 -14 -22 4 -4 10 -1 14 6 12
6 -2 14 -10 16 -16z m-746 -129 c-34 -74 -36 -77 -61 -62 -11 8 -20 18 -18 24
3 9 84 75 92 75 2 0 -4 -17 -13 -37z m-1714 -52 c6 -18 -55 -13 -62 5 -15 39
-7 47 26 25 18 -11 34 -25 36 -30z m1219 23 c-3 -3 -12 -4 -19 -1 -8 3 -5 6 6
6 11 1 17 -2 13 -5z m1022 -52 c3 -1 -1 -8 -8 -15 -10 -9 -16 -7 -32 12 -10
13 -19 30 -19 39 0 12 6 10 28 -9 15 -13 29 -25 31 -27z m-1219 -7 c0 -14 -4
-25 -8 -25 -5 0 -19 11 -32 25 l-23 25 31 0 c27 0 32 -4 32 -25z m334 -79 c17
-46 20 -64 10 -55 -7 6 -21 34 -29 62 -28 96 -16 92 19 -7z m256 43 c14 -25 8
-33 -18 -25 -14 5 -18 13 -15 26 7 26 19 25 33 -1z m-405 -10 c11 -17 -1 -21
-15 -4 -8 9 -8 15 -2 15 6 0 14 -5 17 -11z m-665 -128 c0 -14 -5 -18 -20 -14
-16 4 -18 8 -9 19 16 20 29 17 29 -5z m-954 -131 l68 -51 3 -81 c4 -81 3 -82
-17 -63 -26 24 -118 166 -147 229 l-23 48 24 -15 c13 -9 54 -39 92 -67z m2160
21 c13 -10 24 -22 24 -25 0 -14 -22 -4 -56 26 -34 30 -35 33 -17 45 16 12 18
12 21 -6 2 -11 14 -29 28 -40z m774 -15 c0 -16 -7 -27 -20 -31 -11 -3 -28 -14
-37 -23 -16 -16 -16 -16 -10 1 4 10 7 32 7 48 0 26 4 29 30 29 25 0 30 -4 30
-24z m-1916 -28 c14 -53 10 -56 -55 -52 -40 2 -68 8 -78 18 -14 15 -13 16 14
16 17 0 46 8 65 19 46 25 47 25 54 -1z m213 -2 c31 -16 79 -29 137 -35 49 -6
90 -12 92 -14 6 -6 -47 -107 -56 -107 -5 0 -12 5 -15 10 -3 6 -24 10 -47 10
-68 0 -168 89 -168 150 0 14 1 13 57 -14z m-2361 -52 c27 -22 60 -50 74 -61
14 -12 39 -33 55 -47 28 -24 29 -25 8 -26 -29 0 -153 40 -173 55 -8 7 -20 14
-27 16 -21 7 -113 90 -113 103 0 9 17 10 63 5 54 -5 71 -12 113 -45z m1904 28
c0 -5 -11 -19 -24 -31 l-23 -22 -6 22 c-3 12 -4 26 -1 31 7 10 54 11 54 0z
m920 -100 c18 -125 17 -127 -49 -94 l-55 27 0 73 c-1 39 4 74 9 76 6 3 26 5
46 5 l36 1 13 -88z m-1341 13 c-7 -31 -23 -68 -36 -83 -24 -28 -30 -25 -13 6
5 9 19 45 31 80 26 76 35 74 18 -3z m-653 14 c27 -12 51 -23 53 -25 2 -2 -4
-20 -14 -41 -16 -34 -19 -36 -29 -19 -6 10 -23 34 -38 53 -25 32 -35 53 -24
53 2 0 25 -10 52 -21z m817 -3 c-10 -13 -20 -19 -22 -13 -2 5 4 16 15 24 26
19 27 16 7 -11z m-572 -238 c21 -18 28 -35 33 -80 5 -49 4 -57 -9 -52 -8 4
-15 10 -15 14 0 5 -24 16 -52 26 -29 9 -59 21 -66 27 -11 9 -92 158 -92 170 0
8 178 -85 201 -105z m2275 52 l27 -11 -22 -22 c-11 -13 -21 -29 -21 -35 0 -7
-4 -12 -10 -12 -15 0 -29 63 -17 78 11 15 9 14 43 2z m-631 -83 c13 -3 9 -5
-12 -6 -24 -1 -33 3 -33 15 0 12 3 14 13 6 6 -5 21 -12 32 -15z m-1523 -72
c10 -19 11 -40 4 -90 -10 -64 -19 -79 -30 -50 -3 8 -1 15 4 15 5 0 9 11 8 25
-1 14 -5 25 -9 25 -4 0 -9 17 -11 38 -8 63 10 83 34 37z m898 -40 c14 -1 27
-3 29 -4 3 0 -6 -12 -19 -26 -20 -21 -31 -24 -89 -24 -89 1 -201 29 -201 50 0
10 147 18 210 11 25 -3 56 -6 70 -7z m-461 -121 c65 -13 29 -66 -69 -101 -19
-7 -35 -13 -35 -13 0 0 2 27 3 60 l4 60 33 0 c18 0 47 -3 64 -6z m1165 -124
c39 -18 46 -25 46 -49 0 -40 -8 -43 -44 -17 -17 12 -38 22 -46 21 -18 -1 -29
23 -22 47 6 23 9 22 66 -2z m-90 -15 c-7 -16 -24 -21 -24 -6 0 8 7 13 27 20 1
1 0 -6 -3 -14z m-1742 -21 c24 -13 26 -16 16 -46 -6 -18 -13 -39 -15 -47 -3
-10 -10 -4 -23 17 -11 17 -28 40 -40 52 -30 30 -27 52 8 44 15 -4 39 -13 54
-20z m751 -99 c1 -6 -16 -11 -38 -12 l-40 -2 30 14 c32 15 45 15 48 0z m497
-162 c0 -5 -16 -9 -36 -11 -21 -1 -33 2 -29 8 7 12 65 14 65 3z m106 -22 c18
-2 56 -39 50 -49 -3 -5 -34 -23 -68 -41 -35 -17 -76 -40 -93 -50 -41 -27 -65
-26 -65 1 0 12 -7 29 -16 39 -15 16 -14 20 1 47 11 18 24 28 34 25 9 -2 28 5
42 14 23 15 58 20 115 14z m-352 -154 c-19 -40 -40 -73 -47 -74 -6 -2 -19 11
-27 29 -21 44 -39 52 -94 44 -39 -6 -49 -12 -57 -34 -6 -15 -19 -46 -30 -69
l-20 -42 -48 6 c-41 5 -51 2 -79 -22 -18 -15 -34 -26 -36 -24 -2 2 -6 22 -7
43 -3 27 1 41 11 47 16 8 174 73 203 82 9 4 22 18 27 32 5 14 11 25 12 26 20
5 171 26 195 26 l31 1 -34 -71z m983 -229 c-3 -8 -6 -5 -6 6 -1 11 2 17 5 13
3 -3 4 -12 1 -19z m-270 -78 c8 -22 8 -29 0 -27 -7 1 -13 -13 -15 -30 -4 -36
-28 -45 -39 -15 -4 9 -18 28 -31 42 l-24 25 15 -25 c8 -14 17 -38 20 -55 4
-16 4 -25 1 -18 -3 7 -11 10 -17 7 -11 -4 -64 93 -55 101 1 1 30 7 63 12 33 6
62 11 65 12 3 0 11 -12 17 -29z m62 9 c10 -17 10 -23 1 -29 -7 -4 -9 -13 -6
-19 4 -6 0 -11 -10 -11 -14 0 -16 7 -11 38 3 20 3 31 0 25 -6 -17 -20 -16 -27
2 -9 24 37 18 53 -6z m388 15 c-3 -3 -12 -4 -19 -1 -8 3 -5 6 6 6 11 1 17 -2
13 -5z m-599 -51 c5 -16 14 -37 18 -48 6 -15 -1 -12 -27 12 -18 18 -43 39 -54
47 -19 15 -18 15 17 16 30 0 38 -4 46 -27z m-81 9 c13 -8 2 -77 -16 -95 -7 -7
-8 -2 -4 14 5 20 4 22 -8 12 -18 -14 -43 2 -53 35 -6 17 -3 24 16 31 29 12 50
13 65 3z m-1487 -68 c0 -8 -4 -12 -10 -9 -5 3 -10 10 -10 16 0 5 5 9 10 9 6 0
10 -7 10 -16z m1541 6 c17 -10 28 -60 12 -60 -14 0 -43 34 -43 52 0 21 4 22
31 8z m-1504 -40 c3 -11 9 -18 13 -15 4 3 12 -1 18 -8 7 -8 5 -18 -8 -34 l-18
-22 -16 42 c-19 50 -20 57 -5 57 6 0 13 -9 16 -20z m1334 8 c0 -7 2 -21 4 -31
3 -15 1 -16 -11 -6 -8 6 -14 17 -14 24 0 8 -6 16 -12 18 -7 3 -3 6 10 6 12 1
22 -5 23 -11z m-1375 -26 c-3 -5 4 -25 14 -45 23 -42 24 -47 9 -47 -13 0 -42
69 -35 86 3 8 8 14 11 14 4 0 4 -4 1 -8z m90 -57 c-3 -9 3 -20 14 -27 24 -15
26 -25 5 -25 -8 0 -15 4 -15 9 0 5 -4 6 -10 3 -5 -3 -10 0 -10 9 0 18 10 46
17 46 3 0 3 -7 -1 -15z m841 9 c-3 -3 -12 -4 -19 -1 -8 3 -5 6 6 6 11 1 17 -2
13 -5z m-777 -25 c0 -6 -4 -7 -10 -4 -5 3 -10 11 -10 16 0 6 5 7 10 4 6 -3 10
-11 10 -16z m719 -5 c3 -3 0 -9 -6 -15 -15 -15 -43 -4 -43 16 0 12 6 15 23 9
12 -3 24 -8 26 -10z m1188 -867 c95 -99 136 -169 164 -283 24 -103 31 -205 14
-210 -5 -2 -22 17 -37 41 -20 32 -42 52 -85 74 -70 35 -98 63 -118 120 -19 56
-19 61 5 61 11 0 26 -12 34 -28 8 -16 21 -34 29 -41 13 -10 13 -7 1 26 -7 21
-13 60 -14 86 0 35 -10 68 -35 118 -59 118 -46 128 42 36z m88 -627 c-16 -16
-36 -30 -44 -29 -14 0 -14 1 -1 6 8 3 25 17 37 30 12 12 25 23 29 23 4 0 -5
-13 -21 -30z m113 -21 l37 -7 -36 -1 c-26 -1 -41 5 -55 21 -17 20 -17 21 -1 9
10 -8 35 -18 55 -22z m-181 -15 c-3 -3 -12 -4 -19 -1 -8 3 -5 6 6 6 11 1 17
-2 13 -5z m250 0 c-3 -3 -12 -4 -19 -1 -8 3 -5 6 6 6 11 1 17 -2 13 -5z m-234
-91 c-7 -2 -19 -2 -25 0 -7 3 -2 5 12 5 14 0 19 -2 13 -5z m425 -30 c-10 -2
-28 -2 -40 0 -13 2 -5 4 17 4 22 1 32 -1 23 -4z m-88 -322 c-8 -5 -31 -11 -50
-14 -35 -6 -35 -6 5 8 46 15 67 18 45 6z m50 -5 c0 -2 -7 -7 -16 -10 -8 -3
-12 -2 -9 4 6 10 25 14 25 6z m-134 -67 c-43 -22 -76 -43 -73 -46 3 -3 29 0
57 6 28 6 88 11 133 11 65 0 89 -4 116 -21 46 -28 34 -34 -20 -9 -72 32 -215
23 -346 -23 -24 -8 -43 -13 -43 -12 0 9 229 134 245 134 6 0 -25 -18 -69 -40z
m-746 16 l25 -15 -30 7 c-38 10 -79 9 -130 -1 -27 -6 -37 -5 -30 2 24 24 128
28 165 7z m90 -220 c0 -8 -3 -16 -7 -18 -5 -3 -8 5 -8 18 0 13 3 21 8 18 4 -2
7 -10 7 -18z m71 -43 c-5 -9 -19 -26 -32 -37 -17 -15 -15 -10 7 17 32 41 40
48 25 20z"/>
<path d="M9091 9519 c-14 -5 -39 -26 -57 -47 l-32 -37 -24 21 c-42 38 -66 46
-102 34 -39 -13 -96 -86 -96 -124 0 -31 11 -33 28 -6 6 11 31 31 53 46 48 30
64 22 64 -29 0 -30 2 -32 42 -35 66 -5 108 10 109 39 1 56 46 87 75 52 22 -26
101 -73 124 -73 24 0 45 17 45 37 0 7 -21 24 -47 37 -27 14 -61 38 -76 55 -16
17 -35 31 -42 31 -7 0 -19 2 -27 4 -7 3 -24 0 -37 -5z"/>
<path d="M7375 9430 c-16 -11 -38 -25 -47 -32 -15 -10 -21 -10 -35 0 -65 46
-109 40 -196 -27 -72 -55 -97 -92 -81 -118 18 -29 28 -25 90 32 95 88 139 95
139 22 l0 -32 64 2 c74 2 104 20 84 52 -10 16 -8 22 12 35 33 22 41 21 110
-13 45 -22 64 -27 78 -19 36 19 16 51 -52 86 -74 37 -123 41 -166 12z"/>
<path d="M8634 8916 c-69 -32 -121 -80 -151 -140 -14 -28 -27 -53 -29 -55 -1
-2 -15 6 -31 17 -72 50 -117 66 -188 65 -114 0 -203 -58 -286 -185 -20 -32
-39 -49 -59 -53 -40 -9 -67 -41 -54 -63 6 -9 20 -18 32 -20 26 -4 103 35 122
62 25 36 143 160 165 173 33 20 130 16 173 -7 57 -30 75 -47 69 -65 -10 -24 3
-45 28 -45 33 0 151 55 158 74 7 18 -20 49 -38 42 -21 -8 -6 28 28 69 36 44
117 85 168 85 20 0 67 -12 105 -26 66 -25 131 -33 153 -20 15 9 14 43 -1 52
-7 4 -30 11 -53 15 -22 4 -66 16 -97 28 -77 28 -149 27 -214 -3z"/>
<path d="M6768 8817 c-23 -18 -49 -45 -58 -60 -13 -24 -13 -28 1 -42 14 -14
19 -13 50 10 57 42 99 58 115 44 11 -9 11 -15 3 -25 -20 -24 8 -45 55 -42 33
2 43 8 54 30 10 22 23 29 70 38 81 17 82 17 82 38 0 47 -69 56 -151 21 l-50
-22 -23 22 c-35 33 -94 29 -148 -12z"/>
<path d="M5393 8118 c-14 -17 -22 -64 -29 -162 -3 -44 -10 -94 -15 -110 -5
-16 -9 -73 -9 -127 0 -78 -3 -99 -14 -99 -8 0 -17 7 -20 16 -3 9 -15 14 -28
12 -35 -5 -34 -41 3 -111 29 -53 33 -71 32 -127 -1 -36 3 -75 9 -88 10 -19 8
-25 -10 -38 -13 -9 -22 -26 -22 -42 l0 -27 -13 25 c-7 13 -24 31 -39 40 -25
13 -29 13 -43 -1 -14 -14 -15 -23 -5 -58 6 -22 15 -41 20 -41 8 0 12 -11 27
-65 4 -16 3 -18 -8 -7 -33 31 -76 2 -60 -41 7 -17 7 -28 1 -32 -15 -10 -12
-47 6 -66 16 -17 15 -19 -10 -28 -50 -20 -36 -53 63 -150 l89 -88 129 -28
c187 -41 180 -42 241 47 36 53 40 78 14 94 -21 13 -53 1 -111 -41 -19 -14 -40
-25 -47 -25 -30 0 -11 28 52 75 74 56 114 104 114 135 0 17 -5 21 -27 18 -17
-2 -32 -12 -39 -26 -13 -25 -93 -102 -107 -102 -4 0 8 21 28 47 30 39 35 54
33 87 -2 27 -9 42 -23 50 -11 6 -23 15 -26 20 -7 9 -39 5 -71 -9 -30 -12 -24
73 11 147 38 79 28 113 -31 101 -35 -7 -36 7 -8 72 61 142 70 215 26 215 -19
0 -21 5 -18 39 3 29 -1 43 -17 58 -19 18 -20 21 -6 73 12 45 13 72 4 150 -8
64 -8 112 -1 148 8 43 7 56 -5 68 -18 17 -28 18 -40 2z m-115 -1054 c2 -1 -1
-5 -7 -8 -5 -4 -15 4 -22 16 -12 22 -11 22 7 8 10 -8 20 -15 22 -16z m16 -40
c9 -24 2 -26 -12 -4 -7 11 -8 20 -3 20 5 0 12 -7 15 -16z"/>
<path d="M5085 6789 c-4 -5 -4 -21 -1 -35 5 -20 11 -24 29 -18 35 10 38 19 17
42 -23 24 -35 27 -45 11z"/>
<path d="M5215 6741 c-3 -5 4 -12 15 -15 72 -21 67 -21 46 3 -20 22 -51 28
-61 12z"/>
<path d="M7536 6480 c-44 -401 -45 -1056 -1 -1435 63 -543 195 -895 367 -979
l53 -25 205 9 c113 5 237 16 275 24 39 9 85 15 103 16 l32 0 0 56 c0 31 -5
179 -11 328 l-11 271 -102 105 c-206 211 -351 408 -509 689 -152 272 -268 553
-361 878 l-34 118 -6 -55z"/>
<path d="M7425 6423 c-54 -144 -224 -467 -408 -772 -183 -306 -464 -697 -702
-976 -75 -88 -69 -59 -66 -355 1 -184 7 -302 17 -392 l6 -48 49 0 c27 0 76 9
109 20 459 155 845 1010 990 2196 21 176 36 374 28 374 -3 0 -13 -21 -23 -47z"/>
<path d="M7426 5709 c-3 -8 -10 -43 -16 -79 -68 -406 -226 -898 -386 -1199
-135 -255 -310 -458 -469 -543 -72 -38 -77 -35 143 -83 156 -34 347 -54 510
-55 63 0 63 0 60 27 -2 19 -10 29 -28 34 -23 6 -22 7 8 8 27 1 32 5 32 26 0
20 -5 25 -24 25 -14 0 -28 5 -31 10 -4 6 6 10 24 10 27 0 31 4 39 43 l10 42 1
-41 c1 -27 6 -44 16 -48 8 -3 15 -10 15 -15 0 -6 -7 -8 -15 -5 -23 9 -32 -26
-11 -41 11 -8 13 -15 7 -20 -6 -3 -11 -15 -11 -26 0 -17 7 -19 78 -19 53 0
104 8 158 24 106 31 257 91 305 121 21 14 40 25 43 25 2 0 21 7 42 16 l39 16
-60 30 c-187 93 -308 330 -389 763 -29 155 -53 346 -62 509 -7 120 -20 137
-27 35 -2 -30 -7 -61 -9 -69 -7 -18 -28 -118 -28 -130 0 -5 8 -11 18 -13 15
-4 14 -6 -5 -12 -17 -6 -23 -19 -31 -68 -6 -34 -10 -69 -10 -77 1 -8 -2 -29
-6 -47 -5 -19 -3 -34 4 -38 8 -5 7 -10 -3 -18 -21 -17 -30 -97 -11 -97 19 0
18 -16 -1 -24 -9 -3 -15 -19 -15 -41 0 -24 4 -35 15 -35 8 0 15 -4 15 -10 0
-5 -7 -10 -15 -10 -19 0 -21 -66 -2 -73 10 -4 10 -7 0 -18 -21 -22 -16 -76 7
-82 11 -3 20 -10 20 -16 0 -6 -9 -11 -20 -11 -16 0 -20 -7 -20 -38 0 -21 6
-44 12 -50 10 -10 10 -14 0 -21 -8 -5 -12 -27 -11 -64 2 -65 -2 -74 -19 -47
-7 12 -8 20 -2 20 5 0 10 18 10 40 0 36 -2 40 -26 40 -22 0 -25 2 -14 15 7 8
19 15 26 15 18 0 19 76 2 83 -10 4 -10 7 0 18 6 7 12 30 12 51 0 31 -4 38 -20
38 -11 0 -20 5 -20 11 0 6 9 13 20 16 29 8 24 63 -6 63 -21 0 -17 18 6 30 28
15 27 60 -1 67 l-22 6 22 17 c17 12 23 28 25 68 1 29 6 55 9 59 4 3 7 19 7 35
0 20 -5 28 -17 28 -17 1 -17 1 -1 13 25 19 35 67 14 67 -21 0 -21 16 0 24 13
5 15 14 10 41 -4 20 -3 35 2 35 6 0 12 18 14 41 3 34 0 43 -17 49 -20 9 -20 9
1 9 14 1 24 9 28 24 9 33 8 34 -16 42 l-23 8 21 4 c25 5 38 41 23 59 -7 8 -6
13 1 16 12 4 35 136 48 278 8 92 8 118 -2 89z m-90 -1589 c17 0 19 -16 3 -26
-19 -11 -69 -14 -69 -4 0 5 9 14 20 20 11 6 21 18 21 28 1 16 2 16 6 0 2 -10
11 -18 19 -18z m-28 -135 c-2 -2 -15 -1 -30 2 -31 6 -28 23 3 23 14 0 19 8 21
33 1 25 2 23 5 -12 3 -23 3 -44 1 -46z"/>
<path d="M12426 5496 c-32 -18 -63 -40 -68 -50 -6 -10 -19 -27 -29 -37 -11
-11 -19 -25 -19 -31 0 -7 12 -1 25 15 13 15 28 27 32 27 5 0 16 9 26 20 9 11
23 20 30 20 7 0 28 16 47 35 42 43 32 43 -44 1z"/>
<path d="M4475 5133 c-4 -32 -15 -107 -25 -168 -19 -112 -41 -308 -39 -354 1
-25 1 -25 14 5 16 36 36 180 28 200 -7 19 6 136 17 154 14 22 21 7 25 -56 3
-33 7 -95 10 -139 7 -91 30 -239 46 -302 11 -39 18 -46 86 -84 41 -22 77 -39
79 -36 2 2 -9 51 -25 108 -17 57 -35 132 -42 167 -17 92 -7 222 25 312 15 41
29 82 32 90 3 10 -16 27 -60 52 -35 21 -85 53 -110 73 -25 19 -48 35 -50 35
-2 0 -7 -26 -11 -57z"/>
<path d="M4399 5129 c-7 -14 -7 -25 -1 -31 6 -6 13 1 20 21 12 35 -1 42 -19
10z"/>
<path d="M4946 4827 c-82 -132 -98 -184 -104 -334 -2 -72 -2 -151 2 -175 6
-37 12 -46 48 -66 23 -12 43 -20 45 -18 2 2 8 35 14 72 15 111 58 269 110 413
28 73 48 135 47 137 -6 6 -100 44 -108 44 -5 0 -29 -33 -54 -73z"/>
<path d="M5160 4585 c0 -148 4 -245 10 -245 17 0 78 124 109 223 18 55 32 125
34 159 l2 60 -65 24 c-36 13 -71 24 -77 24 -10 0 -13 -56 -13 -245z"/>
<path d="M4269 4683 c25 -38 27 -50 4 -32 -10 9 -8 1 6 -17 26 -36 21 -74 -10
-74 -14 0 -19 -7 -19 -25 0 -16 -6 -25 -15 -25 -8 0 -15 -5 -15 -11 0 -6 -13
-29 -30 -52 -30 -43 -114 -274 -149 -413 -33 -131 -51 -284 -51 -435 0 -88 -6
-171 -15 -213 -8 -38 -14 -71 -12 -72 8 -9 138 151 211 261 48 72 102 152 121
179 46 64 75 164 75 256 0 67 1 72 15 54 13 -17 14 -16 9 21 -3 22 -15 89 -26
149 -12 68 -19 136 -16 178 4 70 -3 84 -23 46 l-12 -22 -14 28 c-16 31 -37 25
-27 -7 6 -19 5 -20 -10 -8 -21 17 -20 23 4 51 11 13 20 29 20 35 0 7 7 18 15
25 10 9 15 9 15 1 0 -6 5 -11 10 -11 6 0 10 16 10 36 0 21 -4 33 -10 29 -5 -3
-10 0 -10 7 -1 7 -17 31 -36 53 -29 32 -32 33 -15 8z m-69 -264 c0 -11 -4 -18
-10 -14 -5 3 -7 12 -3 20 7 21 13 19 13 -6z m68 -12 c-2 -11 -8 -22 -14 -24
-14 -5 -25 22 -18 41 8 22 36 7 32 -17z"/>
<path d="M5626 4668 c-21 -98 -26 -138 -26 -199 0 -43 6 -81 15 -99 19 -37 29
-39 21 -5 -11 44 11 27 34 -27 12 -29 35 -68 51 -86 16 -18 32 -44 35 -58 12
-46 29 -18 35 57 6 63 26 141 91 342 13 43 4 56 -42 57 -14 0 -65 9 -114 20
-50 11 -91 20 -93 20 -1 0 -5 -10 -7 -22z"/>
<path d="M5941 4513 c0 -65 4 -126 7 -136 6 -14 30 8 119 110 62 70 111 128
110 129 -1 1 -55 5 -119 8 l-118 7 1 -118z"/>
<path d="M3860 4593 c0 -2 7 -17 15 -33 9 -17 11 -30 5 -30 -5 0 -10 -9 -10
-21 0 -11 -4 -18 -9 -15 -4 3 -7 -5 -7 -17 1 -12 -3 -29 -8 -37 -10 -13 -9
-13 6 -1 15 11 19 11 25 -4 6 -16 7 -15 15 5 7 18 5 26 -7 33 -16 8 -12 27 6
27 6 0 7 -4 4 -10 -14 -22 6 -8 21 15 15 24 15 25 -20 58 -20 19 -36 32 -36
30z"/>
<path d="M4230 4558 c0 -19 2 -20 10 -8 13 19 13 30 0 30 -5 0 -10 -10 -10
-22z"/>
<path d="M4298 4498 c2 -10 8 -18 13 -18 5 0 9 8 9 18 0 10 -6 19 -14 19 -8 0
-11 -8 -8 -19z"/>
<path d="M6068 4392 c-92 -103 -108 -126 -108 -155 0 -42 34 -177 54 -214 l15
-28 1 28 c0 37 25 35 39 -4 6 -18 11 -54 11 -80 l0 -49 58 0 c32 0 61 2 63 5
3 2 1 44 -3 92 -5 48 -12 186 -16 306 l-7 220 -107 -121z"/>
<path d="M3811 4422 c-1 -12 -8 -25 -16 -28 -8 -4 -13 -10 -10 -15 3 -4 12 -6
20 -2 11 3 15 -2 15 -18 l0 -23 16 23 c9 13 13 26 8 30 -5 3 -15 17 -21 31
-12 25 -12 25 -12 2z"/>
<path d="M9000 4421 c0 -6 4 -13 10 -16 6 -3 7 1 4 9 -7 18 -14 21 -14 7z"/>
<path d="M9406 4323 c-15 -20 -20 -22 -28 -12 -8 11 -9 10 -4 -3 3 -10 1 -18
-5 -18 -9 0 -30 -42 -23 -49 3 -4 64 64 77 86 15 25 3 22 -17 -4z"/>
<path d="M4610 4321 c0 -7 7 -28 16 -49 23 -52 22 -168 -4 -287 -28 -134 -35
-225 -21 -298 12 -69 50 -152 74 -161 25 -9 28 18 6 60 -47 88 -49 196 -5 361
13 47 54 287 54 315 0 4 -24 20 -52 35 -70 37 -68 36 -68 24z"/>
<path d="M4860 4189 c0 -18 48 -223 59 -249 7 -19 10 4 10 97 l1 121 -35 21
c-19 11 -35 16 -35 10z"/>
<path d="M5126 4167 c-5 -15 -6 -31 -2 -34 11 -11 18 5 14 34 l-4 28 -8 -28z"/>
<path d="M5791 4096 c-15 -17 -33 -148 -23 -157 4 -4 29 -9 56 -13 l48 -6 -6
33 c-7 35 -45 137 -56 150 -4 4 -12 1 -19 -7z"/>
<path d="M5734 3854 c-28 -76 -52 -130 -114 -254 -78 -155 -124 -265 -145
-347 -13 -48 -12 -60 4 -121 10 -37 29 -89 41 -117 l23 -50 9 45 c25 133 33
163 69 246 21 51 58 125 83 165 25 41 66 108 91 149 47 78 69 139 80 226 7 59
6 60 -81 70 -47 6 -54 4 -60 -12z"/>
<path d="M4720 3506 c0 -7 11 -16 25 -19 25 -4 25 -4 9 14 -20 22 -34 24 -34
5z"/>
<path d="M5461 3067 c-1 -23 23 -70 45 -88 14 -10 11 -2 -8 31 -14 25 -28 52
-31 60 -4 12 -6 11 -6 -3z"/>
<path d="M6122 2353 c-5 -10 -12 -30 -16 -45 -3 -16 -12 -28 -19 -29 -38 -2
-100 -8 -154 -14 -57 -7 -64 -11 -87 -44 -14 -20 -32 -55 -40 -78 -17 -48 -16
-49 57 -73 21 -6 36 -14 33 -17 -3 -3 -23 2 -46 11 -56 22 -70 21 -70 -9 0
-33 26 -45 120 -54 59 -6 92 -16 136 -40 104 -56 193 -92 267 -106 40 -7 99
-24 132 -38 33 -13 74 -27 92 -30 31 -6 32 -5 39 39 3 25 5 47 3 48 -2 2 -56
11 -119 20 -63 8 -126 18 -140 20 -29 6 82 0 193 -10 68 -6 77 -5 77 10 0 9 9
34 20 56 11 22 20 43 20 48 0 4 -35 15 -77 24 -43 9 -114 26 -158 37 -81 20
-195 28 -195 13 0 -5 23 -19 50 -31 52 -23 79 -54 59 -66 -34 -22 -153 27
-173 70 -5 11 -39 35 -76 54 -52 26 -73 32 -96 27 -62 -15 -90 -17 -114 -7
-22 10 -21 11 12 6 24 -4 48 0 67 10 42 21 57 20 136 -17 46 -21 78 -44 91
-63 21 -32 53 -51 104 -62 48 -9 31 11 -36 43 -75 35 -72 46 18 59 39 6 162
-12 211 -30 9 -4 23 4 36 21 25 31 28 74 6 74 -8 0 -15 3 -15 8 0 4 -134 6
-297 6 -227 -1 -269 0 -178 6 66 4 207 9 312 11 143 3 193 7 193 16 0 21 -58
80 -96 98 -34 16 -40 16 -118 -4 -109 -28 -113 -28 -120 14 -7 38 -29 47 -44
18z m313 -185 c-16 -5 -100 -11 -185 -13 l-155 -3 149 8 c82 5 157 11 165 13
34 10 56 5 26 -5z"/>
<path d="M5330 2119 c-12 -7 -9 -9 9 -9 16 0 40 -17 69 -47 57 -59 37 -72 -22
-14 -28 28 -51 41 -69 41 -15 0 -27 -2 -27 -5 0 -4 16 -23 36 -43 40 -42 69
-91 59 -100 -4 -4 -17 7 -29 23 -31 44 -102 115 -114 115 -6 0 -17 -7 -26 -15
-23 -23 -30 -18 -12 10 20 30 8 32 -28 4 -28 -22 -35 -49 -11 -49 15 0 155
-129 155 -143 0 -21 -33 0 -88 58 -35 36 -69 65 -76 65 -28 0 -77 -23 -72 -34
88 -207 155 -348 203 -424 41 -64 57 -143 48 -238 l-6 -71 33 -25 c18 -14 36
-25 41 -24 4 1 9 42 11 91 2 50 9 103 15 119 10 25 6 39 -34 120 -36 75 -51
95 -77 107 -25 11 -37 26 -51 62 -9 27 -35 70 -56 95 -21 26 -47 65 -56 87
-10 22 -20 43 -22 48 -2 4 -2 7 1 7 2 0 18 -21 34 -47 17 -27 49 -68 71 -92
23 -25 46 -62 51 -83 8 -27 20 -43 43 -54 38 -20 55 -42 82 -108 24 -58 37
-66 53 -32 9 20 8 27 -2 33 -7 4 -24 26 -38 48 -14 22 -35 49 -48 60 -12 11
-33 40 -45 65 -13 25 -40 61 -60 80 -49 45 -95 109 -95 129 0 9 8 3 19 -15 10
-17 46 -54 79 -83 33 -29 68 -69 78 -89 9 -21 34 -56 55 -78 20 -23 45 -57 54
-75 l17 -32 19 24 c10 13 19 28 19 33 0 4 -19 29 -43 56 -23 26 -67 83 -96
126 -58 86 -51 81 86 -70 l72 -80 53 55 c30 30 76 65 103 79 28 14 52 26 54
28 10 6 -106 115 -141 133 -104 54 19 25 142 -33 58 -28 106 -51 108 -53 2 -1
7 -60 12 -131 5 -71 12 -139 16 -151 5 -17 2 -23 -9 -23 -9 0 -18 13 -22 30
-4 17 -12 30 -19 30 -7 0 -38 -16 -71 -35 -32 -20 -60 -33 -62 -31 -8 7 61 53
100 67 34 12 37 16 32 39 -11 42 -22 46 -70 22 -115 -56 -206 -184 -234 -332
l-10 -55 5 73 c8 135 102 275 225 337 l49 26 -17 24 c-10 13 -26 25 -36 25
-41 0 -160 -105 -209 -185 -42 -68 -78 -168 -66 -182 8 -10 6 -13 -7 -13 -14
0 -16 -6 -13 -30 3 -16 1 -30 -4 -30 -5 0 -8 -8 -7 -17 1 -10 -1 -30 -6 -46
-10 -37 3 -157 18 -157 6 0 36 10 65 22 52 22 54 24 49 55 -6 33 17 141 32
156 5 5 2 -20 -6 -54 -17 -76 -10 -134 15 -124 9 4 37 12 60 17 38 9 43 13 39
31 -20 83 -20 95 7 121 14 15 31 26 38 26 7 0 1 -10 -14 -21 -24 -17 -28 -28
-28 -67 0 -71 5 -74 85 -54 59 15 77 24 112 62 48 51 53 70 19 70 -13 0 -29 7
-36 15 -18 22 22 63 69 71 20 4 43 11 51 16 27 16 -73 -3 -119 -23 -65 -28
-63 -14 2 16 52 24 111 32 174 23 32 -4 218 161 200 179 -25 24 -141 75 -195
85 -126 23 -132 26 -61 27 64 1 113 -10 194 -43 l40 -17 -28 25 c-31 28 -92
49 -217 73 -47 9 -89 20 -94 25 -16 13 58 9 140 -8 42 -8 79 -13 82 -10 3 3
-1 6 -9 6 -8 0 -51 17 -94 39 -44 21 -114 46 -155 55 -105 24 -166 58 -352
194 -25 18 -43 22 -94 21 -34 -1 -66 1 -71 4 -5 3 -15 2 -23 -4z m781 -564
c16 -9 27 -20 24 -25 -3 -5 -24 0 -45 11 -29 15 -54 20 -89 17 -27 -1 -47 0
-44 5 8 13 123 7 154 -8z"/>
<path d="M5230 2106 c0 -9 40 -13 46 -5 3 5 -6 9 -20 9 -14 0 -26 -2 -26 -4z"/>
<path d="M5585 2066 c22 -20 46 -36 54 -36 22 0 -2 23 -51 49 l-43 22 40 -35z"/>
<path d="M4689 2038 c-7 -18 -39 -72 -71 -120 -32 -49 -74 -121 -94 -161 -20
-40 -62 -115 -94 -167 -87 -145 -102 -179 -108 -245 -6 -86 39 -195 114 -271
112 -115 306 -170 504 -145 107 14 166 35 227 81 85 64 138 168 150 295 18
196 -63 319 -286 431 -54 27 -93 39 -134 42 -31 3 -60 9 -64 15 -4 6 17 8 63
5 72 -5 155 -40 254 -107 24 -17 46 -29 48 -27 2 2 -8 26 -22 54 -14 27 -38
87 -54 133 -49 138 -47 136 -106 142 -28 3 -52 4 -53 3 -2 -1 -3 -25 -4 -52 0
-27 -3 -57 -6 -67 -6 -25 -22 -11 -18 16 18 116 17 137 -7 157 -31 26 -54 25
-90 -5 -16 -14 -33 -25 -37 -25 -4 0 -22 11 -41 25 -44 33 -55 32 -71 -7z
m102 -61 c-6 -15 -22 -78 -37 -142 -15 -63 -31 -115 -34 -115 -4 0 -4 20 1 45
16 87 67 250 76 242 2 -3 -1 -16 -6 -30z m101 -312 c65 -13 133 -32 150 -42
42 -24 114 -132 135 -203 18 -64 13 -174 -13 -235 -18 -43 -75 -122 -102 -141
-35 -24 -107 -35 -231 -35 -126 -1 -160 6 -245 46 -41 20 -66 68 -65 122 l1
38 9 -43 c12 -64 41 -98 107 -123 49 -20 74 -23 187 -23 199 1 230 15 298 133
31 54 32 60 31 161 0 110 -3 121 -57 208 -42 68 -76 87 -194 111 -145 30 -220
35 -288 21 -49 -10 -66 -20 -105 -60 -29 -30 -55 -69 -66 -99 -21 -58 -32 -61
-14 -4 16 49 73 133 105 156 33 24 138 45 195 40 25 -3 98 -15 162 -28z m-475
-267 c-3 -7 -5 -2 -5 12 0 14 2 19 5 13 2 -7 2 -19 0 -25z"/>
<path d="M5768 1988 c-5 -32 0 -36 82 -58 29 -8 45 -8 49 -1 8 13 62 -5 171
-58 63 -31 101 -59 161 -119 l80 -79 87 -13 c48 -6 109 -14 135 -17 l48 -6
-14 34 -13 34 -110 15 c-60 9 -125 23 -144 32 -19 8 -42 18 -50 22 -8 3 -4 4
10 1 275 -61 300 -63 300 -27 0 16 -10 21 -52 26 -28 4 -80 20 -114 37 -36 16
-80 29 -102 29 -49 0 -147 36 -255 95 -66 36 -94 45 -133 45 -27 0 -68 9 -91
19 l-41 19 -4 -30z m553 -186 c-7 -2 -18 1 -23 6 -8 8 -4 9 13 5 13 -4 18 -8
10 -11z m142 -119 c-7 -2 -21 -2 -30 0 -10 3 -4 5 12 5 17 0 24 -2 18 -5z"/>
<path d="M5910 1379 c0 -10 58 -19 75 -13 29 11 15 21 -30 20 -25 -1 -45 -4
-45 -7z"/>
<path d="M5311 1184 c-14 -39 -6 -53 29 -54 8 0 33 -3 55 -6 l40 -7 -50 52
c-27 28 -52 51 -55 51 -3 0 -12 -16 -19 -36z"/>
</g>
</svg>
