<svg xmlns="http://www.w3.org/2000/svg" xmlns:xlink="http://www.w3.org/1999/xlink" width="1344" zoomAndPan="magnify" viewBox="0 0 1008 1295.99994" height="1728" preserveAspectRatio="xMidYMid meet" version="1.0"><defs><clipPath id="3a1f38aa3b"><path d="M 14.085938 158.085938 L 993.914062 158.085938 L 993.914062 1137.914062 L 14.085938 1137.914062 Z M 14.085938 158.085938 " clip-rule="nonzero"/></clipPath><clipPath id="00dc44bc20"><path d="M 504 158.085938 C 233.425781 158.085938 14.085938 377.425781 14.085938 648 C 14.085938 918.574219 233.425781 1137.914062 504 1137.914062 C 774.574219 1137.914062 993.914062 918.574219 993.914062 648 C 993.914062 377.425781 774.574219 158.085938 504 158.085938 Z M 504 158.085938 " clip-rule="nonzero"/></clipPath><clipPath id="852855796a"><path d="M 35.734375 179.734375 L 972.484375 179.734375 L 972.484375 1116.484375 L 35.734375 1116.484375 Z M 35.734375 179.734375 " clip-rule="nonzero"/></clipPath></defs><g clip-path="url(#3a1f38aa3b)"><g clip-path="url(#00dc44bc20)"><path fill="#394d51" d="M 14.085938 158.085938 L 993.914062 158.085938 L 993.914062 1137.914062 L 14.085938 1137.914062 Z M 14.085938 158.085938 " fill-opacity="1" fill-rule="nonzero"/></g></g><g clip-path="url(#852855796a)"><path fill="#da9943" d="M 504 179.734375 C 761.546875 179.734375 972.261719 390.449219 972.261719 648 C 972.261719 905.546875 761.546875 1116.261719 504 1116.261719 C 246.449219 1116.261719 35.734375 905.546875 35.734375 648 C 35.734375 390.449219 246.449219 179.734375 504 179.734375 Z M 504 231.601562 C 274.980469 231.601562 87.601562 418.980469 87.601562 648 C 87.601562 877.019531 274.980469 1064.394531 504 1064.394531 C 733.019531 1064.394531 920.394531 877.019531 920.394531 648 C 920.394531 418.980469 733.019531 231.601562 504 231.601562 " fill-opacity="1" fill-rule="evenodd"/></g><path fill="#da9943" d="M 505.980469 603.425781 C 493.726562 675.847656 431.628906 844.894531 398.640625 912.9375 L 207.394531 912.9375 C 202.113281 912.9375 197.824219 908.660156 197.824219 903.375 C 197.824219 901.121094 198.605469 899.050781 199.914062 897.414062 L 496.070312 457.199219 L 496.058594 457.164062 C 499.007812 452.777344 504.953125 451.617188 509.339844 454.566406 C 510.636719 455.433594 511.644531 456.5625 512.351562 457.835938 L 808.511719 898.046875 L 808.539062 898.035156 C 811.488281 902.421875 810.328125 908.367188 805.945312 911.3125 C 804.277344 912.433594 802.390625 912.957031 800.527344 912.9375 L 609.355469 912.9375 C 576.429688 845.03125 518.210938 675.695312 505.980469 603.425781 " fill-opacity="1" fill-rule="nonzero"/><path fill="#da9943" d="M 513.566406 383.050781 L 513.566406 462.503906 L 494.429688 462.503906 L 494.429688 383.050781 L 513.566406 383.050781 " fill-opacity="1" fill-rule="nonzero"/><path fill="#da9943" d="M 216.960938 809.421875 L 216.960938 903.375 L 197.824219 903.375 L 197.824219 809.421875 L 216.960938 809.421875 " fill-opacity="1" fill-rule="nonzero"/><path fill="#da9943" d="M 810.171875 809.421875 L 810.171875 903.375 L 791.027344 903.375 L 791.027344 809.421875 L 810.171875 809.421875 " fill-opacity="1" fill-rule="nonzero"/></svg>